{"glyphs":{"0":{"ha":769,"x_min":0,"x_max":0,"o":"m 60 276 b 385 -21 76 107 217 -21 b 710 276 553 -21 693 107 b 714 485 714 322 714 368 b 710 692 714 601 714 646 b 385 989 693 861 553 989 b 60 692 217 989 76 861 b 56 485 56 646 56 601 b 60 276 56 368 56 322 z m 163 283 b 158 485 158 324 158 371 b 163 685 158 599 158 644 b 385 886 174 801 269 886 b 607 685 500 886 596 801 b 611 485 611 644 611 599 b 607 283 611 371 611 324 b 385 82 596 167 500 82 b 163 283 269 82 174 167 z "},"1":{"ha":418,"x_min":0,"x_max":0,"o":"m 186 0 l 294 0 l 294 968 l 53 968 l 53 868 l 186 868 z "},"2":{"ha":697,"x_min":0,"x_max":0,"o":"m 18 0 l 649 0 l 649 100 l 179 100 l 525 485 b 625 714 607 578 625 658 b 346 989 625 865 500 989 b 67 714 192 989 67 865 l 174 714 b 344 886 174 808 250 886 b 517 715 439 886 517 810 b 453 561 517 660 496 611 l 18 71 z "},"3":{"ha":779,"x_min":0,"x_max":0,"o":"m 17 181 b 375 -21 71 56 206 -21 b 722 304 575 -21 722 111 b 407 613 722 483 583 613 b 379 610 397 613 383 611 l 688 896 l 688 968 l 106 968 l 106 868 l 524 868 l 211 575 l 250 506 b 361 522 285 517 322 522 b 619 304 522 522 619 431 b 375 82 619 172 518 82 b 110 224 246 82 147 135 z "},"4":{"ha":793,"x_min":0,"x_max":0,"o":"m 74 215 l 579 215 l 579 0 l 688 0 l 688 526 l 579 526 l 579 315 l 203 315 l 526 968 l 410 968 l 74 288 z "},"5":{"ha":771,"x_min":0,"x_max":0,"o":"m 39 176 b 358 -21 96 58 219 -21 b 715 325 553 -21 715 115 b 371 657 715 488 585 657 b 246 631 325 657 282 647 l 289 868 l 646 868 l 646 968 l 197 968 l 115 510 l 192 492 b 372 554 236 529 301 554 b 604 317 500 554 604 447 b 358 82 604 188 489 82 b 132 221 261 82 172 136 z "},"6":{"ha":782,"x_min":0,"x_max":0,"o":"m 56 319 b 393 -21 56 129 208 -21 b 729 321 578 -21 729 128 b 406 646 729 504 575 646 b 326 638 379 646 351 643 l 549 968 l 419 968 b 188 618 203 640 196 629 b 56 319 113 507 56 421 z m 165 315 b 393 547 165 449 261 547 b 626 315 521 547 626 443 b 393 82 626 188 521 82 b 165 315 265 82 165 181 z "},"7":{"ha":761,"x_min":0,"x_max":0,"o":"m 154 0 l 274 0 l 711 893 l 711 968 l 50 968 l 50 868 l 582 868 z "},"8":{"ha":753,"x_min":0,"x_max":0,"o":"m 53 293 b 376 -21 53 121 196 -21 b 700 293 557 -21 700 121 b 528 560 700 432 619 522 b 626 739 586 600 626 664 b 376 989 626 876 514 989 b 126 739 239 989 126 876 b 225 560 126 664 167 600 b 53 293 133 522 53 432 z m 376 592 b 233 739 297 592 233 658 b 376 886 233 819 297 886 b 519 739 456 886 519 819 b 376 592 519 658 456 592 z m 161 293 b 376 504 161 410 258 504 b 592 293 494 504 592 410 b 376 82 592 176 494 82 b 161 293 258 82 161 176 z "},"9":{"ha":767,"x_min":0,"x_max":0,"o":"m 219 0 l 349 0 b 571 336 561 322 567 329 b 713 660 651 457 713 549 b 383 989 713 839 578 989 b 54 654 204 989 54 843 b 374 338 54 465 214 338 b 457 350 403 338 433 343 z m 383 433 b 157 660 258 433 157 535 b 383 886 157 785 258 886 b 610 660 508 886 610 785 b 383 433 610 535 528 433 z "}," ":{"ha":572,"x_min":0,"x_max":0,"o":""},"A":{"ha":1000,"x_min":0,"x_max":0,"o":"m 49 0 l 165 0 l 265 239 l 735 239 l 835 0 l 951 0 l 542 968 l 458 968 z m 307 339 l 500 800 l 693 339 z "},"B":{"ha":822,"x_min":0,"x_max":0,"o":"m 128 0 l 460 0 b 754 286 629 0 754 122 b 560 526 754 407 688 500 b 683 721 638 557 683 628 b 424 968 683 864 569 968 l 128 968 z m 236 564 l 236 868 l 418 868 b 575 717 510 868 575 803 b 417 564 575 629 508 564 z m 236 100 l 236 467 l 451 467 b 646 286 565 467 646 389 b 453 100 646 179 564 100 z "},"C":{"ha":988,"x_min":0,"x_max":0,"o":"m 65 483 b 569 -19 65 193 290 -19 b 943 150 718 -19 851 43 l 869 217 b 569 81 799 131 692 81 b 174 483 342 81 174 253 b 569 886 174 714 342 886 b 865 756 692 886 794 838 l 939 822 b 569 986 847 925 718 986 b 65 483 290 986 65 774 z "},"D":{"ha":1008,"x_min":0,"x_max":0,"o":"m 128 0 l 440 0 b 939 483 754 0 939 197 b 439 968 939 769 753 968 l 128 968 z m 236 100 l 236 868 l 431 868 b 831 483 701 868 831 710 b 432 100 831 258 701 100 z "},"E":{"ha":763,"x_min":0,"x_max":0,"o":"m 128 0 l 685 0 l 685 100 l 236 100 l 236 461 l 649 461 l 649 561 l 236 561 l 236 868 l 675 868 l 675 968 l 128 968 z "},"F":{"ha":703,"x_min":0,"x_max":0,"o":"m 128 0 l 236 0 l 236 456 l 599 456 l 599 556 l 236 556 l 236 868 l 633 868 l 633 968 l 128 968 z "},"G":{"ha":1028,"x_min":0,"x_max":0,"o":"m 65 483 b 569 -19 65 193 290 -19 b 943 140 718 -19 850 40 l 943 528 l 539 528 l 539 428 l 835 428 l 835 178 b 569 81 765 117 674 81 b 174 483 342 81 174 253 b 569 886 174 713 342 886 b 836 785 675 886 767 849 l 904 860 b 569 986 815 942 700 986 b 65 483 290 986 65 774 z "},"H":{"ha":1010,"x_min":0,"x_max":0,"o":"m 128 0 l 236 0 l 236 464 l 774 464 l 774 0 l 882 0 l 882 968 l 774 968 l 774 564 l 236 564 l 236 968 l 128 968 z "},"I":{"ha":375,"x_min":0,"x_max":0,"o":"m 133 0 l 242 0 l 242 968 l 133 968 z "},"J":{"ha":431,"x_min":0,"x_max":0,"o":"m 19 -7 b 100 -19 46 -15 71 -19 b 310 267 294 -19 310 125 l 310 968 l 201 968 l 201 263 b 93 82 201 165 188 82 b 19 96 69 82 40 88 z "},"K":{"ha":886,"x_min":0,"x_max":0,"o":"m 128 0 l 236 0 l 236 314 l 376 467 l 715 0 l 846 0 l 449 546 l 835 968 l 701 968 l 236 454 l 236 968 l 128 968 z "},"L":{"ha":689,"x_min":0,"x_max":0,"o":"m 128 0 l 635 0 l 635 100 l 236 100 l 236 968 l 128 968 z "},"M":{"ha":1193,"x_min":0,"x_max":0,"o":"m 128 0 l 235 0 l 235 753 l 597 163 l 958 754 l 958 0 l 1065 0 l 1065 968 l 967 968 l 597 354 l 228 968 l 128 968 z "},"N":{"ha":1043,"x_min":0,"x_max":0,"o":"m 128 0 l 236 0 l 236 783 l 828 0 l 915 0 l 915 968 l 807 968 l 807 193 l 222 968 l 128 968 z "},"O":{"ha":1139,"x_min":0,"x_max":0,"o":"m 65 483 b 569 -19 65 193 290 -19 b 1074 483 849 -19 1074 193 b 569 986 1074 774 849 986 b 65 483 290 986 65 774 z m 172 483 b 569 886 172 714 342 886 b 965 483 797 886 965 714 b 569 81 965 253 797 81 b 172 483 342 81 172 253 z "},"P":{"ha":796,"x_min":0,"x_max":0,"o":"m 128 0 l 236 0 l 236 379 l 438 379 b 733 674 600 379 733 503 b 438 968 733 843 600 968 l 128 968 z m 236 479 l 236 868 l 433 868 b 625 674 543 868 625 785 b 433 479 625 563 543 479 z "},"Q":{"ha":1139,"x_min":0,"x_max":0,"o":"m 65 483 b 569 -19 65 193 290 -19 b 856 65 675 -19 775 11 l 958 -61 l 1035 1 l 932 128 b 1074 483 1019 217 1074 340 b 569 986 1074 774 849 986 b 65 483 290 986 65 774 z m 172 483 b 569 886 172 714 342 886 b 965 483 797 886 965 714 b 865 208 965 375 928 279 l 708 401 l 632 339 l 790 144 b 569 81 728 104 653 81 b 172 483 342 81 172 253 z "},"R":{"ha":842,"x_min":0,"x_max":0,"o":"m 128 0 l 236 0 l 236 383 l 454 383 l 456 383 l 674 0 l 797 0 l 564 404 b 749 679 672 446 749 550 b 458 968 749 846 618 968 l 128 968 z m 236 483 l 236 868 l 454 868 b 640 679 561 868 640 786 b 447 483 640 567 558 483 z "},"S":{"ha":764,"x_min":0,"x_max":0,"o":"m 57 213 b 392 -19 115 53 243 -19 b 696 253 590 -19 696 99 b 422 558 696 415 600 479 b 225 749 306 611 225 644 b 381 886 225 829 296 886 b 550 785 464 886 514 853 l 643 832 b 382 986 589 932 506 986 b 117 746 229 986 117 885 b 371 467 117 589 224 532 b 588 251 507 407 588 367 b 393 81 588 201 569 81 b 150 256 269 81 193 151 z "},"T":{"ha":719,"x_min":0,"x_max":0,"o":"m 306 0 l 414 0 l 414 868 l 678 868 l 678 968 l 42 968 l 42 868 l 306 868 z "},"U":{"ha":967,"x_min":0,"x_max":0,"o":"m 121 339 b 483 -17 121 104 275 -17 b 846 339 692 -17 846 104 l 846 968 l 738 968 l 738 350 b 483 83 738 172 638 83 b 229 350 329 83 229 172 l 229 968 l 121 968 z "},"V":{"ha":985,"x_min":0,"x_max":0,"o":"m 454 0 l 531 0 l 936 968 l 818 968 l 493 182 l 167 968 l 49 968 z "},"W":{"ha":1278,"x_min":0,"x_max":0,"o":"m 321 0 l 390 0 l 639 749 l 888 0 l 957 0 l 1240 968 l 1131 968 l 915 236 l 676 968 l 601 968 l 363 236 l 147 968 l 38 968 z "},"X":{"ha":907,"x_min":0,"x_max":0,"o":"m 58 0 l 174 0 l 449 425 l 726 0 l 849 0 l 521 500 l 825 968 l 708 968 l 454 575 l 199 968 l 78 968 l 383 501 z "},"Y":{"ha":864,"x_min":0,"x_max":0,"o":"m 379 0 l 488 0 l 488 397 l 825 968 l 708 968 l 435 504 l 158 968 l 39 968 l 379 397 z "},"Z":{"ha":875,"x_min":0,"x_max":0,"o":"m 61 0 l 811 0 l 811 100 l 211 100 l 801 896 l 801 968 l 129 968 l 129 868 l 656 868 l 61 67 z "},"À":{"ha":1000,"x_min":0,"x_max":0,"o":"m 468 1035 l 550 1035 l 476 1236 l 339 1236 z m 49 0 l 165 0 l 265 239 l 735 239 l 835 0 l 951 0 l 542 968 l 458 968 z m 307 339 l 500 800 l 693 339 z "},"Á":{"ha":1000,"x_min":0,"x_max":0,"o":"m 446 1035 l 528 1035 l 657 1236 l 519 1236 z m 49 0 l 165 0 l 265 239 l 735 239 l 835 0 l 951 0 l 542 968 l 458 968 z m 307 339 l 500 800 l 693 339 z "},"Â":{"ha":1000,"x_min":0,"x_max":0,"o":"m 282 1068 l 408 1068 l 500 1160 l 592 1068 l 718 1068 l 543 1236 l 457 1236 z m 49 0 l 165 0 l 265 239 l 735 239 l 835 0 l 951 0 l 542 968 l 458 968 z m 307 339 l 500 800 l 693 339 z "},"Ã":{"ha":1000,"x_min":0,"x_max":0,"o":"m 296 1058 l 364 1053 b 424 1101 372 1088 396 1101 b 588 1047 476 1101 514 1047 b 715 1183 668 1047 706 1100 l 647 1189 b 583 1132 638 1149 618 1132 b 421 1186 532 1132 492 1186 b 296 1058 350 1186 304 1131 z m 49 0 l 165 0 l 265 239 l 735 239 l 835 0 l 951 0 l 542 968 l 458 968 z m 307 339 l 500 800 l 693 339 z "},"Ä":{"ha":1000,"x_min":0,"x_max":0,"o":"m 643 1033 b 713 1103 679 1033 713 1063 b 643 1172 713 1143 679 1172 b 574 1103 607 1172 574 1143 b 643 1033 574 1063 607 1033 z m 357 1033 b 426 1103 393 1033 426 1063 b 357 1172 426 1143 393 1172 b 288 1103 321 1172 288 1143 b 357 1033 288 1063 321 1033 z m 49 0 l 165 0 l 265 239 l 735 239 l 835 0 l 951 0 l 542 968 l 458 968 z m 307 339 l 500 800 l 693 339 z "},"Ā":{"ha":1000,"x_min":0,"x_max":0,"o":"m 296 1068 l 704 1068 l 704 1164 l 296 1164 z m 49 0 l 165 0 l 265 239 l 735 239 l 835 0 l 951 0 l 542 968 l 458 968 z m 307 339 l 500 800 l 693 339 z "},"Ă":{"ha":1000,"x_min":0,"x_max":0,"o":"m 500 1043 b 717 1236 608 1043 701 1118 l 621 1236 b 500 1135 600 1171 561 1135 b 379 1236 439 1135 400 1171 l 283 1236 b 500 1043 299 1118 392 1043 z m 49 0 l 165 0 l 265 239 l 735 239 l 835 0 l 951 0 l 542 968 l 458 968 z m 307 339 l 500 800 l 693 339 z "},"Å":{"ha":974,"x_min":0,"x_max":0,"o":"m 49 0 l 163 0 l 267 239 l 703 239 l 807 0 l 925 0 l 521 922 b 622 1054 579 938 622 990 b 488 1189 622 1128 561 1189 b 351 1054 413 1189 351 1128 b 451 924 351 992 394 939 z m 488 989 b 422 1054 453 989 422 1019 b 488 1118 422 1089 453 1118 b 551 1054 522 1118 551 1089 b 488 989 551 1019 522 989 z m 310 339 l 485 750 l 660 339 z "},"Ǻ":{"ha":974,"x_min":0,"x_max":0,"o":"m 457 1260 l 539 1260 l 668 1461 l 531 1461 z m 49 0 l 163 0 l 267 239 l 703 239 l 807 0 l 925 0 l 521 922 b 622 1054 579 938 622 990 b 488 1189 622 1128 561 1189 b 351 1054 413 1189 351 1128 b 451 924 351 992 394 939 z m 488 989 b 422 1054 453 989 422 1019 b 488 1118 422 1089 453 1118 b 551 1054 522 1118 551 1089 b 488 989 551 1019 522 989 z m 310 339 l 485 750 l 660 339 z "},"Ą":{"ha":1000,"x_min":0,"x_max":0,"o":"m 49 0 l 165 0 l 265 239 l 733 239 l 838 -8 l 839 -11 b 750 -151 792 -43 750 -90 b 890 -275 750 -229 819 -275 b 969 -256 918 -275 944 -268 l 988 -174 b 907 -194 963 -187 936 -194 b 838 -132 871 -194 838 -175 b 951 0 838 -76 901 -18 l 542 968 l 458 968 z m 307 339 l 500 800 l 692 339 z "},"Æ":{"ha":1236,"x_min":0,"x_max":0,"o":"m -22 0 l 114 0 l 297 239 l 692 239 l 692 0 l 1160 0 l 1160 100 l 800 100 l 800 461 l 1124 461 l 1124 561 l 800 561 l 800 868 l 1150 868 l 1150 968 l 719 968 z m 374 339 l 692 763 l 692 339 z "},"Ǽ":{"ha":1236,"x_min":0,"x_max":0,"o":"m 663 1035 l 744 1035 l 874 1236 l 736 1236 z m -22 0 l 114 0 l 297 239 l 692 239 l 692 0 l 1160 0 l 1160 100 l 800 100 l 800 461 l 1124 461 l 1124 561 l 800 561 l 800 868 l 1150 868 l 1150 968 l 719 968 z m 374 339 l 692 763 l 692 339 z "},"Ć":{"ha":988,"x_min":0,"x_max":0,"o":"m 522 1035 l 604 1035 l 733 1236 l 596 1236 z m 65 483 b 569 -19 65 193 290 -19 b 943 150 718 -19 851 43 l 869 217 b 569 81 799 131 692 81 b 174 483 342 81 174 253 b 569 886 174 714 342 886 b 865 756 692 886 794 838 l 939 822 b 569 986 847 925 718 986 b 65 483 290 986 65 774 z "},"Ĉ":{"ha":988,"x_min":0,"x_max":0,"o":"m 363 1068 l 489 1068 l 581 1160 l 672 1068 l 799 1068 l 624 1236 l 538 1236 z m 65 483 b 569 -19 65 193 290 -19 b 943 150 718 -19 851 43 l 869 217 b 569 81 799 131 692 81 b 174 483 342 81 174 253 b 569 886 174 714 342 886 b 865 756 692 886 794 838 l 939 822 b 569 986 847 925 718 986 b 65 483 290 986 65 774 z "},"Č":{"ha":988,"x_min":0,"x_max":0,"o":"m 528 1068 l 614 1068 l 789 1236 l 663 1236 l 571 1144 l 479 1236 l 353 1236 z m 65 483 b 569 -19 65 193 290 -19 b 943 150 718 -19 851 43 l 869 217 b 569 81 799 131 692 81 b 174 483 342 81 174 253 b 569 886 174 714 342 886 b 865 756 692 886 794 838 l 939 822 b 569 986 847 925 718 986 b 65 483 290 986 65 774 z "},"Ċ":{"ha":988,"x_min":0,"x_max":0,"o":"m 563 1060 b 632 1129 599 1060 632 1089 b 563 1199 632 1169 599 1199 b 493 1129 526 1199 493 1169 b 563 1060 493 1089 526 1060 z m 65 483 b 569 -19 65 193 290 -19 b 943 150 718 -19 851 43 l 869 217 b 569 81 799 131 692 81 b 174 483 342 81 174 253 b 569 886 174 714 342 886 b 865 756 692 886 794 838 l 939 822 b 569 986 847 925 718 986 b 65 483 290 986 65 774 z "},"Ç":{"ha":988,"x_min":0,"x_max":0,"o":"m 65 483 b 460 -8 65 232 233 39 l 419 -106 b 521 -162 483 -106 521 -115 b 460 -212 521 -193 494 -212 b 385 -189 428 -212 410 -204 l 358 -243 b 461 -275 378 -258 421 -275 b 604 -162 547 -275 604 -243 b 513 -64 604 -101 563 -64 l 533 -18 b 569 -19 546 -19 557 -19 b 943 150 718 -19 851 43 l 869 217 b 569 81 799 131 692 81 b 174 483 342 81 174 253 b 569 886 174 714 342 886 b 865 756 692 886 794 838 l 939 822 b 569 986 847 925 718 986 b 65 483 290 986 65 774 z "},"Ď":{"ha":1008,"x_min":0,"x_max":0,"o":"m 450 1068 l 536 1068 l 711 1236 l 585 1236 l 493 1144 l 401 1236 l 275 1236 z m 128 0 l 440 0 b 939 483 754 0 939 197 b 439 968 939 769 753 968 l 128 968 z m 236 100 l 236 868 l 431 868 b 831 483 701 868 831 710 b 432 100 831 258 701 100 z "},"Đ":{"ha":1003,"x_min":0,"x_max":0,"o":"m 128 0 l 440 0 b 939 483 754 0 939 197 b 439 968 939 769 753 968 l 128 968 l 128 547 l 38 547 l 38 447 l 128 447 z m 236 100 l 236 447 l 438 447 l 438 547 l 236 547 l 236 868 l 431 868 b 831 483 701 868 831 710 b 432 100 831 258 701 100 z "},"È":{"ha":763,"x_min":0,"x_max":0,"o":"m 385 1035 l 467 1035 l 393 1236 l 256 1236 z m 128 0 l 685 0 l 685 100 l 236 100 l 236 461 l 649 461 l 649 561 l 236 561 l 236 868 l 675 868 l 675 968 l 128 968 z "},"É":{"ha":763,"x_min":0,"x_max":0,"o":"m 346 1035 l 428 1035 l 557 1236 l 419 1236 z m 128 0 l 685 0 l 685 100 l 236 100 l 236 461 l 649 461 l 649 561 l 236 561 l 236 868 l 675 868 l 675 968 l 128 968 z "},"Ê":{"ha":763,"x_min":0,"x_max":0,"o":"m 185 1068 l 311 1068 l 403 1160 l 494 1068 l 621 1068 l 446 1236 l 360 1236 z m 128 0 l 685 0 l 685 100 l 236 100 l 236 461 l 649 461 l 649 561 l 236 561 l 236 868 l 675 868 l 675 968 l 128 968 z "},"Ě":{"ha":763,"x_min":0,"x_max":0,"o":"m 369 1068 l 456 1068 l 631 1236 l 504 1236 l 413 1144 l 321 1236 l 194 1236 z m 128 0 l 685 0 l 685 100 l 236 100 l 236 461 l 649 461 l 649 561 l 236 561 l 236 868 l 675 868 l 675 968 l 128 968 z "},"Ë":{"ha":763,"x_min":0,"x_max":0,"o":"m 546 1060 b 615 1129 582 1060 615 1089 b 546 1199 615 1169 582 1199 b 476 1129 510 1199 476 1169 b 546 1060 476 1089 510 1060 z m 260 1060 b 329 1129 296 1060 329 1089 b 260 1199 329 1169 296 1199 b 190 1129 224 1199 190 1169 b 260 1060 190 1089 224 1060 z m 128 0 l 685 0 l 685 100 l 236 100 l 236 461 l 649 461 l 649 561 l 236 561 l 236 868 l 675 868 l 675 968 l 128 968 z "},"Ē":{"ha":763,"x_min":0,"x_max":0,"o":"m 194 1068 l 603 1068 l 603 1164 l 194 1164 z m 128 0 l 685 0 l 685 100 l 236 100 l 236 461 l 649 461 l 649 561 l 236 561 l 236 868 l 675 868 l 675 968 l 128 968 z "},"Ĕ":{"ha":763,"x_min":0,"x_max":0,"o":"m 406 1043 b 622 1236 514 1043 607 1118 l 526 1236 b 406 1135 506 1171 467 1135 b 285 1236 344 1135 306 1171 l 189 1236 b 406 1043 204 1118 297 1043 z m 128 0 l 685 0 l 685 100 l 236 100 l 236 461 l 649 461 l 649 561 l 236 561 l 236 868 l 675 868 l 675 968 l 128 968 z "},"Ė":{"ha":763,"x_min":0,"x_max":0,"o":"m 407 1060 b 476 1129 443 1060 476 1089 b 407 1199 476 1169 443 1199 b 338 1129 371 1199 338 1169 b 407 1060 338 1089 371 1060 z m 128 0 l 685 0 l 685 100 l 236 100 l 236 461 l 649 461 l 649 561 l 236 561 l 236 868 l 675 868 l 675 968 l 128 968 z "},"Ę":{"ha":763,"x_min":0,"x_max":0,"o":"m 128 0 l 596 0 b 492 -151 544 -32 492 -83 b 632 -275 492 -229 561 -275 b 711 -256 660 -275 686 -268 l 729 -174 b 649 -194 704 -187 678 -194 b 579 -132 613 -194 579 -175 b 685 0 579 -76 643 -26 l 685 100 l 236 100 l 236 461 l 649 461 l 649 561 l 236 561 l 236 868 l 675 868 l 675 968 l 128 968 z "},"Ĝ":{"ha":1028,"x_min":0,"x_max":0,"o":"m 350 1068 l 476 1068 l 568 1160 l 660 1068 l 786 1068 l 611 1236 l 525 1236 z m 65 483 b 569 -19 65 193 290 -19 b 943 140 718 -19 850 40 l 943 528 l 539 528 l 539 428 l 835 428 l 835 178 b 569 81 765 117 674 81 b 174 483 342 81 174 253 b 569 886 174 713 342 886 b 836 785 675 886 767 849 l 904 860 b 569 986 815 942 700 986 b 65 483 290 986 65 774 z "},"Ğ":{"ha":1028,"x_min":0,"x_max":0,"o":"m 565 1043 b 782 1236 674 1043 767 1118 l 686 1236 b 565 1135 665 1171 626 1135 b 444 1236 504 1135 465 1171 l 349 1236 b 565 1043 364 1118 457 1043 z m 65 483 b 569 -19 65 193 290 -19 b 943 140 718 -19 850 40 l 943 528 l 539 528 l 539 428 l 835 428 l 835 178 b 569 81 765 117 674 81 b 174 483 342 81 174 253 b 569 886 174 713 342 886 b 836 785 675 886 767 849 l 904 860 b 569 986 815 942 700 986 b 65 483 290 986 65 774 z "},"Ġ":{"ha":1028,"x_min":0,"x_max":0,"o":"m 571 1060 b 640 1129 607 1060 640 1089 b 571 1199 640 1169 607 1199 b 501 1129 535 1199 501 1169 b 571 1060 501 1089 535 1060 z m 65 483 b 569 -19 65 193 290 -19 b 943 140 718 -19 850 40 l 943 528 l 539 528 l 539 428 l 835 428 l 835 178 b 569 81 765 117 674 81 b 174 483 342 81 174 253 b 569 886 174 713 342 886 b 836 785 675 886 767 849 l 904 860 b 569 986 815 942 700 986 b 65 483 290 986 65 774 z "},"Ģ":{"ha":1028,"x_min":0,"x_max":0,"o":"m 65 483 b 569 -19 65 193 290 -19 b 943 140 718 -19 850 40 l 943 528 l 539 528 l 539 428 l 835 428 l 835 178 b 569 81 765 117 674 81 b 174 483 342 81 174 253 b 569 886 174 713 342 886 b 836 785 675 886 767 849 l 904 860 b 569 986 815 942 700 986 b 65 483 290 986 65 774 z m 429 -268 l 511 -268 l 640 -67 l 503 -67 z "},"Ĥ":{"ha":1010,"x_min":0,"x_max":0,"o":"m 286 1068 l 413 1068 l 504 1160 l 596 1068 l 722 1068 l 547 1236 l 461 1236 z m 128 0 l 236 0 l 236 464 l 774 464 l 774 0 l 882 0 l 882 968 l 774 968 l 774 564 l 236 564 l 236 968 l 128 968 z "},"Ħ":{"ha":1010,"x_min":0,"x_max":0,"o":"m 128 0 l 236 0 l 236 464 l 774 464 l 774 0 l 882 0 l 882 700 l 964 700 l 964 796 l 882 796 l 882 968 l 774 968 l 774 796 l 236 796 l 236 968 l 128 968 l 128 796 l 46 796 l 46 700 l 128 700 z m 236 564 l 236 700 l 774 700 l 774 564 z "},"Ì":{"ha":375,"x_min":0,"x_max":0,"o":"m 147 1035 l 229 1035 l 156 1236 l 18 1236 z m 133 0 l 242 0 l 242 968 l 133 968 z "},"Í":{"ha":375,"x_min":0,"x_max":0,"o":"m 144 1035 l 226 1035 l 356 1236 l 218 1236 z m 133 0 l 242 0 l 242 968 l 133 968 z "},"Î":{"ha":375,"x_min":0,"x_max":0,"o":"m -31 1068 l 96 1068 l 188 1160 l 279 1068 l 406 1068 l 231 1236 l 144 1236 z m 133 0 l 242 0 l 242 968 l 133 968 z "},"Ĩ":{"ha":375,"x_min":0,"x_max":0,"o":"m 46 1053 b 106 1101 54 1088 78 1101 b 269 1047 158 1101 196 1047 b 397 1183 350 1047 388 1100 l 329 1189 b 265 1132 319 1149 300 1132 b 103 1186 214 1132 174 1186 b -22 1058 32 1186 -14 1131 z m 133 0 l 242 0 l 242 968 l 133 968 z "},"Ï":{"ha":375,"x_min":0,"x_max":0,"o":"m 317 1060 b 386 1129 353 1060 386 1089 b 317 1199 386 1169 353 1199 b 247 1129 281 1199 247 1169 b 317 1060 247 1089 281 1060 z m 58 1060 b 128 1129 94 1060 128 1089 b 58 1199 128 1169 94 1199 b -11 1129 22 1199 -11 1169 b 58 1060 -11 1089 22 1060 z m 133 0 l 242 0 l 242 968 l 133 968 z "},"Ī":{"ha":375,"x_min":0,"x_max":0,"o":"m -3 1068 l 378 1068 l 378 1164 l -3 1164 z m 133 0 l 242 0 l 242 968 l 133 968 z "},"Ĭ":{"ha":375,"x_min":0,"x_max":0,"o":"m 188 1043 b 404 1236 296 1043 389 1118 l 308 1236 b 188 1135 288 1171 249 1135 b 67 1236 126 1135 88 1171 l -29 1236 b 188 1043 -14 1118 79 1043 z m 133 0 l 242 0 l 242 968 l 133 968 z "},"İ":{"ha":375,"x_min":0,"x_max":0,"o":"m 188 1060 b 257 1129 224 1060 257 1089 b 188 1199 257 1169 224 1199 b 118 1129 151 1199 118 1169 b 188 1060 118 1089 151 1060 z m 133 0 l 242 0 l 242 968 l 133 968 z "},"Į":{"ha":375,"x_min":0,"x_max":0,"o":"m 133 -8 l 133 -10 b 43 -151 86 -42 43 -89 b 183 -275 43 -229 113 -275 b 263 -256 211 -275 238 -268 l 281 -174 b 200 -194 256 -187 229 -194 b 131 -132 164 -194 131 -175 b 242 0 131 -76 199 -17 l 242 968 l 133 968 z "},"Ĳ":{"ha":660,"x_min":0,"x_max":0,"o":"m 133 -10 b 296 -19 181 -17 233 -19 b 539 297 511 -19 539 135 l 539 968 l 431 968 l 431 283 b 285 81 431 190 431 81 b 133 90 224 81 174 83 z m 133 196 l 242 196 l 242 968 l 133 968 z "},"Ĵ":{"ha":431,"x_min":0,"x_max":0,"o":"m 38 1068 l 164 1068 l 256 1160 l 347 1068 l 474 1068 l 299 1236 l 213 1236 z m 19 -7 b 100 -19 46 -15 71 -19 b 310 267 294 -19 310 125 l 310 968 l 201 968 l 201 263 b 93 82 201 165 188 82 b 19 96 69 82 40 88 z "},"Ķ":{"ha":886,"x_min":0,"x_max":0,"o":"m 128 0 l 236 0 l 236 314 l 376 467 l 715 0 l 846 0 l 449 546 l 835 968 l 701 968 l 236 454 l 236 968 l 128 968 z m 306 -268 l 388 -268 l 517 -67 l 379 -67 z "},"Ĺ":{"ha":689,"x_min":0,"x_max":0,"o":"m 153 1035 l 235 1035 l 364 1236 l 226 1236 z m 128 0 l 635 0 l 635 100 l 236 100 l 236 968 l 128 968 z "},"Ľ":{"ha":689,"x_min":0,"x_max":0,"o":"m 128 0 l 635 0 l 635 100 l 236 100 l 236 968 l 128 968 z m 350 767 l 432 767 l 561 968 l 424 968 z "},"Ļ":{"ha":689,"x_min":0,"x_max":0,"o":"m 128 0 l 635 0 l 635 100 l 236 100 l 236 968 l 128 968 z m 328 -67 l 254 -268 l 336 -268 l 465 -67 z "},"Ŀ":{"ha":689,"x_min":0,"x_max":0,"o":"m 128 0 l 635 0 l 635 100 l 236 100 l 236 968 l 128 968 z m 446 446 b 515 515 482 446 515 475 b 446 585 515 556 482 585 b 376 515 410 585 376 556 b 446 446 376 475 410 446 z "},"Ł":{"ha":688,"x_min":0,"x_max":0,"o":"m 128 0 l 635 0 l 635 100 l 236 100 l 236 453 l 431 561 l 431 667 l 236 557 l 236 968 l 128 968 l 128 497 l 35 446 l 35 340 l 128 392 z "},"Ń":{"ha":1043,"x_min":0,"x_max":0,"o":"m 463 1035 l 544 1035 l 674 1236 l 536 1236 z m 128 0 l 236 0 l 236 783 l 828 0 l 915 0 l 915 968 l 807 968 l 807 193 l 222 968 l 128 968 z "},"Ň":{"ha":1043,"x_min":0,"x_max":0,"o":"m 478 1068 l 564 1068 l 739 1236 l 613 1236 l 521 1144 l 429 1236 l 303 1236 z m 128 0 l 236 0 l 236 783 l 828 0 l 915 0 l 915 968 l 807 968 l 807 193 l 222 968 l 128 968 z "},"Ñ":{"ha":1043,"x_min":0,"x_max":0,"o":"m 311 1058 l 379 1053 b 439 1101 388 1088 411 1101 b 603 1047 492 1101 529 1047 b 731 1183 683 1047 721 1100 l 663 1189 b 599 1132 653 1149 633 1132 b 436 1186 547 1132 507 1186 b 311 1058 365 1186 319 1131 z m 128 0 l 236 0 l 236 783 l 828 0 l 915 0 l 915 968 l 807 968 l 807 193 l 222 968 l 128 968 z "},"Ņ":{"ha":1043,"x_min":0,"x_max":0,"o":"m 406 -268 l 488 -268 l 617 -67 l 479 -67 z m 128 0 l 236 0 l 236 783 l 828 0 l 915 0 l 915 968 l 807 968 l 807 193 l 222 968 l 128 968 z "},"Ò":{"ha":1139,"x_min":0,"x_max":0,"o":"m 535 1035 l 617 1035 l 543 1236 l 406 1236 z m 65 483 b 569 -19 65 193 290 -19 b 1074 483 849 -19 1074 193 b 569 986 1074 774 849 986 b 65 483 290 986 65 774 z m 172 483 b 569 886 172 714 342 886 b 965 483 797 886 965 714 b 569 81 965 253 797 81 b 172 483 342 81 172 253 z "},"Ó":{"ha":1139,"x_min":0,"x_max":0,"o":"m 508 1035 l 590 1035 l 719 1236 l 582 1236 z m 65 483 b 569 -19 65 193 290 -19 b 1074 483 849 -19 1074 193 b 569 986 1074 774 849 986 b 65 483 290 986 65 774 z m 172 483 b 569 886 172 714 342 886 b 965 483 797 886 965 714 b 569 81 965 253 797 81 b 172 483 342 81 172 253 z "},"Ô":{"ha":1139,"x_min":0,"x_max":0,"o":"m 351 1068 l 478 1068 l 569 1160 l 661 1068 l 788 1068 l 613 1236 l 526 1236 z m 65 483 b 569 -19 65 193 290 -19 b 1074 483 849 -19 1074 193 b 569 986 1074 774 849 986 b 65 483 290 986 65 774 z m 172 483 b 569 886 172 714 342 886 b 965 483 797 886 965 714 b 569 81 965 253 797 81 b 172 483 342 81 172 253 z "},"Õ":{"ha":1139,"x_min":0,"x_max":0,"o":"m 360 1058 l 428 1053 b 488 1101 436 1088 460 1101 b 651 1047 540 1101 578 1047 b 779 1183 732 1047 769 1100 l 711 1189 b 647 1132 701 1149 682 1132 b 485 1186 596 1132 556 1186 b 360 1058 414 1186 368 1131 z m 65 483 b 569 -19 65 193 290 -19 b 1074 483 849 -19 1074 193 b 569 986 1074 774 849 986 b 65 483 290 986 65 774 z m 172 483 b 569 886 172 714 342 886 b 965 483 797 886 965 714 b 569 81 965 253 797 81 b 172 483 342 81 172 253 z "},"Ö":{"ha":1139,"x_min":0,"x_max":0,"o":"m 713 1033 b 782 1103 749 1033 782 1063 b 713 1172 782 1143 749 1172 b 643 1103 676 1172 643 1143 b 713 1033 643 1063 676 1033 z m 426 1033 b 496 1103 463 1033 496 1063 b 426 1172 496 1143 463 1172 b 357 1103 390 1172 357 1143 b 426 1033 357 1063 390 1033 z m 65 483 b 569 -19 65 193 290 -19 b 1074 483 849 -19 1074 193 b 569 986 1074 774 849 986 b 65 483 290 986 65 774 z m 172 483 b 569 886 172 714 342 886 b 965 483 797 886 965 714 b 569 81 965 253 797 81 b 172 483 342 81 172 253 z "},"Ō":{"ha":1139,"x_min":0,"x_max":0,"o":"m 365 1069 l 774 1069 l 774 1165 l 365 1165 z m 65 483 b 569 -19 65 193 290 -19 b 1074 483 849 -19 1074 193 b 569 986 1074 774 849 986 b 65 483 290 986 65 774 z m 172 483 b 569 886 172 714 342 886 b 965 483 797 886 965 714 b 569 81 965 253 797 81 b 172 483 342 81 172 253 z "},"Ŏ":{"ha":1139,"x_min":0,"x_max":0,"o":"m 569 1043 b 786 1236 678 1043 771 1118 l 690 1236 b 569 1135 669 1171 631 1135 b 449 1236 508 1135 469 1171 l 353 1236 b 569 1043 368 1118 461 1043 z m 65 483 b 569 -19 65 193 290 -19 b 1074 483 849 -19 1074 193 b 569 986 1074 774 849 986 b 65 483 290 986 65 774 z m 172 483 b 569 886 172 714 342 886 b 965 483 797 886 965 714 b 569 81 965 253 797 81 b 172 483 342 81 172 253 z "},"Ő":{"ha":1139,"x_min":0,"x_max":0,"o":"m 638 1035 l 714 1035 l 857 1236 l 725 1236 z m 424 1035 l 500 1035 l 643 1236 l 511 1236 z m 65 483 b 569 -19 65 193 290 -19 b 1074 483 849 -19 1074 193 b 569 986 1074 774 849 986 b 65 483 290 986 65 774 z m 172 483 b 569 886 172 714 342 886 b 965 483 797 886 965 714 b 569 81 965 253 797 81 b 172 483 342 81 172 253 z "},"Ø":{"ha":1139,"x_min":0,"x_max":0,"o":"m 158 0 l 238 -58 l 315 46 b 569 -19 390 4 476 -19 b 1074 483 849 -19 1074 193 b 918 851 1074 633 1014 761 l 999 960 l 919 1019 l 839 911 b 569 986 761 958 669 986 b 65 483 290 986 65 774 b 235 103 65 326 131 193 z m 296 185 b 172 483 218 257 172 363 b 569 886 172 714 342 886 b 779 829 647 886 719 865 z m 376 128 l 856 768 b 965 483 925 696 965 597 b 569 81 965 253 797 81 b 376 128 499 81 433 97 z "},"Ǿ":{"ha":1139,"x_min":0,"x_max":0,"o":"m 535 1035 l 617 1035 l 746 1236 l 608 1236 z m 158 0 l 238 -58 l 315 46 b 569 -19 390 4 476 -19 b 1074 483 849 -19 1074 193 b 918 851 1074 633 1014 761 l 999 960 l 919 1019 l 839 911 b 569 986 761 958 669 986 b 65 483 290 986 65 774 b 235 103 65 326 131 193 z m 296 185 b 172 483 218 257 172 363 b 569 886 172 714 342 886 b 779 829 647 886 719 865 z m 376 128 l 856 768 b 965 483 925 696 965 597 b 569 81 965 253 797 81 b 376 128 499 81 433 97 z "},"Œ":{"ha":1506,"x_min":0,"x_max":0,"o":"m 65 483 b 569 -19 65 193 290 -19 b 960 190 747 -19 878 56 l 960 0 l 1428 0 l 1428 100 l 1068 100 l 1068 461 l 1392 461 l 1392 561 l 1068 561 l 1068 868 l 1418 868 l 1418 968 l 960 968 l 960 782 b 569 986 875 913 744 986 b 65 483 290 986 65 774 z m 172 483 b 569 886 172 714 342 886 b 965 483 797 886 965 714 b 569 81 965 253 797 81 b 172 483 342 81 172 253 z "},"Ŕ":{"ha":842,"x_min":0,"x_max":0,"o":"m 344 1035 l 426 1035 l 556 1236 l 418 1236 z m 128 0 l 236 0 l 236 383 l 454 383 l 456 383 l 674 0 l 797 0 l 564 404 b 749 679 672 446 749 550 b 458 968 749 846 618 968 l 128 968 z m 236 483 l 236 868 l 454 868 b 640 679 561 868 640 786 b 447 483 640 567 558 483 z "},"Ř":{"ha":842,"x_min":0,"x_max":0,"o":"m 363 1068 l 449 1068 l 624 1236 l 497 1236 l 406 1144 l 314 1236 l 188 1236 z m 128 0 l 236 0 l 236 383 l 454 383 l 456 383 l 674 0 l 797 0 l 564 404 b 749 679 672 446 749 550 b 458 968 749 846 618 968 l 128 968 z m 236 483 l 236 868 l 454 868 b 640 679 561 868 640 786 b 447 483 640 567 558 483 z "},"Ŗ":{"ha":842,"x_min":0,"x_max":0,"o":"m 128 0 l 236 0 l 236 383 l 454 383 l 456 383 l 674 0 l 797 0 l 564 404 b 749 679 672 446 749 550 b 458 968 749 846 618 968 l 128 968 z m 236 483 l 236 868 l 454 868 b 640 679 561 868 640 786 b 447 483 640 567 558 483 z m 389 -67 l 315 -268 l 397 -268 l 526 -67 z "},"Ś":{"ha":764,"x_min":0,"x_max":0,"o":"m 332 1035 l 414 1035 l 543 1236 l 406 1236 z m 57 213 b 392 -19 115 53 243 -19 b 696 253 590 -19 696 99 b 422 558 696 415 600 479 b 225 749 306 611 225 644 b 381 886 225 829 296 886 b 550 785 464 886 514 853 l 643 832 b 382 986 589 932 506 986 b 117 746 229 986 117 885 b 371 467 117 589 224 532 b 588 251 507 407 588 367 b 393 81 588 201 569 81 b 150 256 269 81 193 151 z "},"Ŝ":{"ha":764,"x_min":0,"x_max":0,"o":"m 183 1068 l 310 1068 l 401 1160 l 493 1068 l 619 1068 l 444 1236 l 358 1236 z m 57 213 b 392 -19 115 53 243 -19 b 696 253 590 -19 696 99 b 422 558 696 415 600 479 b 225 749 306 611 225 644 b 381 886 225 829 296 886 b 550 785 464 886 514 853 l 643 832 b 382 986 589 932 506 986 b 117 746 229 986 117 885 b 371 467 117 589 224 532 b 588 251 507 407 588 367 b 393 81 588 201 569 81 b 150 256 269 81 193 151 z "},"Š":{"ha":764,"x_min":0,"x_max":0,"o":"m 361 1068 l 447 1068 l 622 1236 l 496 1236 l 404 1144 l 313 1236 l 186 1236 z m 57 213 b 392 -19 115 53 243 -19 b 696 253 590 -19 696 99 b 422 558 696 415 600 479 b 225 749 306 611 225 644 b 381 886 225 829 296 886 b 550 785 464 886 514 853 l 643 832 b 382 986 589 932 506 986 b 117 746 229 986 117 885 b 371 467 117 589 224 532 b 588 251 507 407 588 367 b 393 81 588 201 569 81 b 150 256 269 81 193 151 z "},"Ș":{"ha":764,"x_min":0,"x_max":0,"o":"m 57 213 b 392 -19 115 53 243 -19 b 696 253 590 -19 696 99 b 422 558 696 415 600 479 b 225 749 306 611 225 644 b 381 886 225 829 296 886 b 550 785 464 886 514 853 l 643 832 b 382 986 589 932 506 986 b 117 746 229 986 117 885 b 371 467 117 589 224 532 b 588 251 507 407 588 367 b 393 81 588 201 569 81 b 150 256 269 81 193 151 z m 238 -268 l 319 -268 l 449 -67 l 311 -67 z "},"Ş":{"ha":764,"x_min":0,"x_max":0,"o":"m 57 213 b 324 -14 106 78 206 6 l 285 -108 b 386 -165 349 -108 386 -118 b 325 -215 386 -196 360 -215 b 250 -192 293 -215 275 -207 l 224 -246 b 326 -278 243 -261 286 -278 b 469 -165 413 -278 469 -246 b 378 -67 469 -104 428 -67 l 399 -19 b 696 253 593 -17 696 100 b 422 558 696 415 600 479 b 225 749 306 611 225 644 b 381 886 225 829 296 886 b 550 785 464 886 514 853 l 643 832 b 382 986 589 932 506 986 b 117 746 229 986 117 885 b 371 467 117 589 224 532 b 588 251 507 407 588 367 b 393 81 588 201 569 81 b 150 256 269 81 193 151 z "},"Ť":{"ha":719,"x_min":0,"x_max":0,"o":"m 315 1068 l 401 1068 l 576 1236 l 450 1236 l 358 1144 l 267 1236 l 140 1236 z m 306 0 l 414 0 l 414 868 l 678 868 l 678 968 l 42 968 l 42 868 l 306 868 z "},"Ţ":{"ha":719,"x_min":0,"x_max":0,"o":"m 306 0 l 414 0 l 414 868 l 678 868 l 678 968 l 42 968 l 42 868 l 306 868 z m 293 -67 l 219 -268 l 301 -268 l 431 -67 z "},"Ŧ":{"ha":719,"x_min":0,"x_max":0,"o":"m 306 0 l 414 0 l 414 501 l 564 501 l 564 597 l 414 597 l 414 868 l 678 868 l 678 968 l 42 968 l 42 868 l 306 868 l 306 597 l 156 597 l 156 501 l 306 501 z "},"Ù":{"ha":967,"x_min":0,"x_max":0,"o":"m 451 1035 l 533 1035 l 460 1236 l 322 1236 z m 121 339 b 483 -17 121 104 275 -17 b 846 339 692 -17 846 104 l 846 968 l 738 968 l 738 350 b 483 83 738 172 638 83 b 229 350 329 83 229 172 l 229 968 l 121 968 z "},"Ú":{"ha":967,"x_min":0,"x_max":0,"o":"m 438 1035 l 519 1035 l 649 1236 l 511 1236 z m 121 339 b 483 -17 121 104 275 -17 b 846 339 692 -17 846 104 l 846 968 l 738 968 l 738 350 b 483 83 738 172 638 83 b 229 350 329 83 229 172 l 229 968 l 121 968 z "},"Û":{"ha":967,"x_min":0,"x_max":0,"o":"m 265 1068 l 392 1068 l 483 1160 l 575 1068 l 701 1068 l 526 1236 l 440 1236 z m 121 339 b 483 -17 121 104 275 -17 b 846 339 692 -17 846 104 l 846 968 l 738 968 l 738 350 b 483 83 738 172 638 83 b 229 350 329 83 229 172 l 229 968 l 121 968 z "},"Ũ":{"ha":967,"x_min":0,"x_max":0,"o":"m 276 1058 l 344 1053 b 404 1101 353 1088 376 1101 b 568 1047 457 1101 494 1047 b 696 1183 649 1047 686 1100 l 628 1189 b 564 1132 618 1149 599 1132 b 401 1186 513 1132 472 1186 b 276 1058 331 1186 285 1131 z m 121 339 b 483 -17 121 104 275 -17 b 846 339 692 -17 846 104 l 846 968 l 738 968 l 738 350 b 483 83 738 172 638 83 b 229 350 329 83 229 172 l 229 968 l 121 968 z "},"Ü":{"ha":967,"x_min":0,"x_max":0,"o":"m 626 1033 b 696 1103 663 1033 696 1063 b 626 1172 696 1143 663 1172 b 557 1103 590 1172 557 1143 b 626 1033 557 1063 590 1033 z m 340 1033 b 410 1103 376 1033 410 1063 b 340 1172 410 1143 376 1172 b 271 1103 304 1172 271 1143 b 340 1033 271 1063 304 1033 z m 121 339 b 483 -17 121 104 275 -17 b 846 339 692 -17 846 104 l 846 968 l 738 968 l 738 350 b 483 83 738 172 638 83 b 229 350 329 83 229 172 l 229 968 l 121 968 z "},"Ū":{"ha":967,"x_min":0,"x_max":0,"o":"m 279 1069 l 688 1069 l 688 1165 l 279 1165 z m 121 339 b 483 -17 121 104 275 -17 b 846 339 692 -17 846 104 l 846 968 l 738 968 l 738 350 b 483 83 738 172 638 83 b 229 350 329 83 229 172 l 229 968 l 121 968 z "},"Ŭ":{"ha":967,"x_min":0,"x_max":0,"o":"m 483 1043 b 700 1236 592 1043 685 1118 l 604 1236 b 483 1135 583 1171 544 1135 b 363 1236 422 1135 383 1171 l 267 1236 b 483 1043 282 1118 375 1043 z m 121 339 b 483 -17 121 104 275 -17 b 846 339 692 -17 846 104 l 846 968 l 738 968 l 738 350 b 483 83 738 172 638 83 b 229 350 329 83 229 172 l 229 968 l 121 968 z "},"Ů":{"ha":967,"x_min":0,"x_max":0,"o":"m 485 986 b 619 1122 560 986 619 1047 b 485 1257 619 1196 558 1257 b 349 1122 410 1257 349 1196 b 485 986 349 1047 410 986 z m 485 1057 b 419 1122 450 1057 419 1088 b 485 1186 419 1157 450 1186 b 549 1122 519 1186 549 1157 b 485 1057 549 1088 519 1057 z m 121 339 b 483 -17 121 104 275 -17 b 846 339 692 -17 846 104 l 846 968 l 738 968 l 738 350 b 483 83 738 172 638 83 b 229 350 329 83 229 172 l 229 968 l 121 968 z "},"Ű":{"ha":967,"x_min":0,"x_max":0,"o":"m 547 1035 l 624 1035 l 767 1236 l 635 1236 z m 333 1035 l 410 1035 l 553 1236 l 421 1236 z m 121 339 b 483 -17 121 104 275 -17 b 846 339 692 -17 846 104 l 846 968 l 738 968 l 738 350 b 483 83 738 172 638 83 b 229 350 329 83 229 172 l 229 968 l 121 968 z "},"Ų":{"ha":967,"x_min":0,"x_max":0,"o":"m 121 339 b 478 -17 121 104 274 -17 b 528 -14 494 -17 511 -15 b 443 -151 483 -46 443 -90 b 583 -275 443 -229 513 -275 b 663 -256 611 -275 638 -268 l 681 -174 b 600 -194 656 -187 629 -194 b 531 -132 564 -194 531 -175 b 713 51 531 -42 681 28 b 846 342 796 111 846 203 l 846 968 l 738 968 l 738 350 b 483 83 738 172 638 83 b 229 350 329 83 229 172 l 229 968 l 121 968 z "},"Ẁ":{"ha":1278,"x_min":0,"x_max":0,"o":"m 608 1035 l 690 1035 l 617 1236 l 479 1236 z m 321 0 l 390 0 l 639 749 l 888 0 l 957 0 l 1240 968 l 1131 968 l 915 236 l 676 968 l 601 968 l 363 236 l 147 968 l 38 968 z "},"Ẃ":{"ha":1278,"x_min":0,"x_max":0,"o":"m 593 1035 l 675 1035 l 804 1236 l 667 1236 z m 321 0 l 390 0 l 639 749 l 888 0 l 957 0 l 1240 968 l 1131 968 l 915 236 l 676 968 l 601 968 l 363 236 l 147 968 l 38 968 z "},"Ŵ":{"ha":1278,"x_min":0,"x_max":0,"o":"m 421 1068 l 547 1068 l 639 1160 l 731 1068 l 857 1068 l 682 1236 l 596 1236 z m 321 0 l 390 0 l 639 749 l 888 0 l 957 0 l 1240 968 l 1131 968 l 915 236 l 676 968 l 601 968 l 363 236 l 147 968 l 38 968 z "},"Ẅ":{"ha":1278,"x_min":0,"x_max":0,"o":"m 782 1033 b 851 1103 818 1033 851 1063 b 782 1172 851 1143 818 1172 b 713 1103 746 1172 713 1143 b 782 1033 713 1063 746 1033 z m 496 1033 b 565 1103 532 1033 565 1063 b 496 1172 565 1143 532 1172 b 426 1103 460 1172 426 1143 b 496 1033 426 1063 460 1033 z m 321 0 l 390 0 l 639 749 l 888 0 l 957 0 l 1240 968 l 1131 968 l 915 236 l 676 968 l 601 968 l 363 236 l 147 968 l 38 968 z "},"Ỳ":{"ha":864,"x_min":0,"x_max":0,"o":"m 417 1035 l 499 1035 l 425 1236 l 288 1236 z m 379 0 l 488 0 l 488 397 l 825 968 l 708 968 l 435 504 l 158 968 l 39 968 l 379 397 z "},"Ý":{"ha":864,"x_min":0,"x_max":0,"o":"m 388 1035 l 469 1035 l 599 1236 l 461 1236 z m 379 0 l 488 0 l 488 397 l 825 968 l 708 968 l 435 504 l 158 968 l 39 968 l 379 397 z "},"Ŷ":{"ha":864,"x_min":0,"x_max":0,"o":"m 218 1068 l 344 1068 l 436 1160 l 528 1068 l 654 1068 l 479 1236 l 393 1236 z m 379 0 l 488 0 l 488 397 l 825 968 l 708 968 l 435 504 l 158 968 l 39 968 l 379 397 z "},"Ÿ":{"ha":864,"x_min":0,"x_max":0,"o":"m 575 1032 b 644 1101 611 1032 644 1061 b 575 1171 644 1142 611 1171 b 506 1101 539 1171 506 1142 b 575 1032 506 1061 539 1032 z m 289 1032 b 358 1101 325 1032 358 1061 b 289 1171 358 1142 325 1171 b 219 1101 253 1171 219 1142 b 289 1032 219 1061 253 1032 z m 379 0 l 488 0 l 488 397 l 825 968 l 708 968 l 435 504 l 158 968 l 39 968 l 379 397 z "},"Ź":{"ha":875,"x_min":0,"x_max":0,"o":"m 413 1035 l 494 1035 l 624 1236 l 486 1236 z m 61 0 l 811 0 l 811 100 l 213 100 l 801 896 l 801 968 l 129 968 l 129 868 l 654 868 l 61 67 z "},"Ž":{"ha":875,"x_min":0,"x_max":0,"o":"m 439 1068 l 525 1068 l 700 1236 l 574 1236 l 482 1144 l 390 1236 l 264 1236 z m 61 0 l 811 0 l 811 100 l 213 100 l 801 896 l 801 968 l 129 968 l 129 868 l 654 868 l 61 67 z "},"Ż":{"ha":875,"x_min":0,"x_max":0,"o":"m 478 1060 b 547 1129 514 1060 547 1089 b 478 1199 547 1169 514 1199 b 408 1129 442 1199 408 1169 b 478 1060 408 1089 442 1060 z m 61 0 l 811 0 l 811 100 l 213 100 l 801 896 l 801 968 l 129 968 l 129 868 l 654 868 l 61 67 z "},"Ŋ":{"ha":1043,"x_min":0,"x_max":0,"o":"m 128 0 l 236 0 l 236 781 l 807 1 b 807 0 807 1 807 0 b 699 -189 807 -83 797 -189 b 625 -175 664 -189 643 -182 l 625 -276 b 699 -289 649 -285 672 -289 b 915 0 872 -289 915 -165 l 915 968 l 807 968 l 807 169 l 222 968 l 128 968 z "},"Ð":{"ha":1003,"x_min":0,"x_max":0,"o":"m 128 0 l 440 0 b 939 483 754 0 939 197 b 439 968 939 769 753 968 l 128 968 l 128 547 l 38 547 l 38 447 l 128 447 z m 236 100 l 236 447 l 438 447 l 438 547 l 236 547 l 236 868 l 431 868 b 831 483 701 868 831 710 b 432 100 831 258 701 100 z "},"Þ":{"ha":681,"x_min":0,"x_max":0,"o":"m 128 0 l 236 0 l 236 201 l 336 201 b 624 476 526 201 624 319 b 326 761 624 639 522 761 l 236 761 l 236 968 l 128 968 z m 236 303 l 236 660 l 325 660 b 515 481 451 660 515 590 b 326 303 515 372 451 303 z "},"a":{"ha":874,"x_min":0,"x_max":0,"o":"m 49 350 b 403 -21 49 136 207 -21 b 657 103 538 -21 617 40 b 704 3 663 49 682 19 b 778 -17 728 -14 756 -17 b 843 -6 800 -17 821 -15 l 843 72 b 807 69 833 71 817 69 b 754 157 768 69 754 96 l 754 700 l 651 700 l 651 596 b 403 721 617 656 540 721 b 49 350 207 721 49 564 z m 151 350 b 403 625 151 507 258 625 b 664 350 553 625 664 507 b 403 75 664 193 553 75 b 151 350 258 75 151 193 z "},"b":{"ha":833,"x_min":0,"x_max":0,"o":"m 79 0 l 182 0 l 182 104 b 431 -21 217 44 293 -21 b 785 350 626 -21 785 136 b 431 721 785 564 626 721 b 182 596 293 721 217 656 l 182 968 l 79 968 z m 169 350 b 431 625 169 507 281 625 b 682 350 575 625 682 507 b 431 75 682 193 575 75 b 169 350 281 75 169 193 z "},"c":{"ha":718,"x_min":0,"x_max":0,"o":"m 49 350 b 421 -21 49 136 215 -21 b 686 85 526 -21 618 15 l 624 157 b 421 75 571 103 500 75 b 151 350 265 75 151 193 b 421 625 151 507 265 625 b 624 543 500 625 571 597 l 686 615 b 421 721 618 685 526 721 b 49 350 215 721 49 564 z "},"d":{"ha":874,"x_min":0,"x_max":0,"o":"m 49 350 b 403 -21 49 136 207 -21 b 657 103 538 -21 617 40 b 704 3 663 49 682 19 b 778 -17 728 -14 756 -17 b 843 -6 800 -17 821 -15 l 843 72 b 807 69 833 71 817 69 b 754 157 768 69 754 96 l 754 968 l 651 968 l 651 596 b 403 721 617 656 540 721 b 49 350 207 721 49 564 z m 151 350 b 403 625 151 507 258 625 b 664 350 553 625 664 507 b 403 75 664 193 553 75 b 151 350 258 75 151 193 z "},"e":{"ha":765,"x_min":0,"x_max":0,"o":"m 49 342 b 401 -18 49 124 193 -18 b 685 106 503 -18 597 8 l 617 172 b 401 75 558 111 503 75 b 151 328 254 75 157 174 l 719 328 b 721 372 721 349 721 372 b 399 721 721 565 593 721 b 49 347 199 721 49 574 z m 158 418 b 399 625 165 532 271 625 b 611 418 517 625 611 531 z "},"f":{"ha":435,"x_min":0,"x_max":0,"o":"m 156 0 l 258 0 l 258 604 l 390 604 l 390 700 l 258 700 l 258 772 b 356 893 258 861 289 893 b 421 886 376 893 400 892 l 421 983 b 367 989 410 986 386 989 b 224 949 322 989 267 986 b 156 758 178 911 156 861 l 156 700 l 43 700 l 43 604 l 156 604 z "},"g":{"ha":833,"x_min":0,"x_max":0,"o":"m 128 -117 l 75 -199 b 407 -306 171 -268 282 -306 b 643 -232 499 -306 583 -279 b 754 117 747 -150 754 -35 l 754 700 l 651 700 l 651 596 b 403 721 617 656 540 721 b 49 356 207 721 49 567 b 403 -8 49 144 207 -8 b 651 117 540 -8 617 57 l 651 58 b 579 -158 651 -18 643 -106 b 406 -210 536 -193 475 -210 b 128 -117 292 -210 208 -175 z m 151 356 b 403 625 151 510 258 625 b 664 356 553 625 664 510 b 403 88 664 201 553 88 b 151 356 258 88 151 201 z "},"h":{"ha":760,"x_min":0,"x_max":0,"o":"m 79 0 l 182 0 l 182 418 b 372 615 182 536 261 615 b 546 425 481 615 546 542 l 546 151 b 679 -4 546 10 626 -4 b 724 3 693 -4 710 -3 l 724 88 b 697 85 715 86 706 85 b 649 158 657 85 649 104 l 649 447 b 397 711 649 604 553 711 b 182 582 292 711 217 657 l 182 968 l 79 968 z "},"i":{"ha":294,"x_min":0,"x_max":0,"o":"m 81 132 b 207 -17 81 -3 157 -17 b 272 -6 229 -17 250 -15 l 272 79 b 236 76 263 78 246 76 b 183 150 196 76 183 99 l 183 700 l 81 700 z m 132 817 b 201 886 168 817 201 846 b 132 956 201 926 168 956 b 63 886 96 956 63 926 b 132 817 63 846 96 817 z "},"j":{"ha":261,"x_min":0,"x_max":0,"o":"m 131 814 b 200 883 167 814 200 843 b 131 953 200 924 167 953 b 61 883 94 953 61 924 b 131 814 61 843 94 814 z m 79 -72 b -18 -193 79 -161 49 -193 b -67 -189 -33 -193 -51 -192 l -67 -286 b -29 -289 -58 -287 -43 -289 b 182 -72 61 -289 182 -261 l 182 700 l 79 700 z "},"k":{"ha":647,"x_min":0,"x_max":0,"o":"m 79 0 l 182 0 l 182 218 l 269 319 l 515 0 l 638 0 l 335 393 l 600 700 l 482 700 l 182 354 l 182 968 l 79 968 z "},"l":{"ha":361,"x_min":0,"x_max":0,"o":"m 81 176 b 257 -21 81 -4 188 -21 b 321 -10 279 -21 304 -19 l 321 78 b 271 75 306 75 288 75 b 183 183 206 75 183 107 l 183 968 l 81 968 z "},"m":{"ha":1142,"x_min":0,"x_max":0,"o":"m 79 0 l 182 0 l 182 418 b 350 615 182 536 254 615 b 506 425 449 615 506 542 l 506 0 l 608 0 l 608 418 b 775 615 608 536 679 615 b 928 425 871 615 928 542 l 928 151 b 1061 -4 928 10 1008 -4 b 1106 3 1075 -4 1092 -3 l 1106 88 b 1079 85 1097 86 1088 85 b 1031 158 1039 85 1031 104 l 1031 447 b 803 711 1031 604 944 711 b 585 572 700 711 624 658 b 379 711 550 658 479 711 b 182 582 282 711 214 657 l 182 700 l 79 700 z "},"n":{"ha":769,"x_min":0,"x_max":0,"o":"m 79 0 l 182 0 l 182 418 b 376 615 182 536 263 615 b 556 425 488 615 556 542 l 556 151 b 689 -4 556 10 636 -4 b 733 3 703 -4 719 -3 l 733 88 b 707 85 725 86 715 85 b 658 158 665 85 658 104 l 658 447 b 403 711 658 604 561 711 b 182 582 294 711 218 657 l 182 700 l 79 700 z "},"o":{"ha":842,"x_min":0,"x_max":0,"o":"m 49 350 b 421 -21 49 136 215 -21 b 793 350 626 -21 793 136 b 421 721 793 564 626 721 b 49 350 215 721 49 564 z m 151 350 b 421 625 151 507 265 625 b 690 350 576 625 690 507 b 421 75 690 193 576 75 b 151 350 265 75 151 193 z "},"p":{"ha":833,"x_min":0,"x_max":0,"o":"m 79 -268 l 182 -268 l 182 104 b 431 -21 217 44 293 -21 b 785 350 626 -21 785 136 b 431 721 785 564 626 721 b 182 596 293 721 217 656 l 182 700 l 79 700 z m 169 350 b 431 625 169 507 281 625 b 682 350 575 625 682 507 b 431 75 682 193 575 75 b 169 350 281 75 169 193 z "},"q":{"ha":833,"x_min":0,"x_max":0,"o":"m 49 350 b 403 -21 49 136 207 -21 b 651 104 540 -21 617 44 l 651 -268 l 754 -268 l 754 700 l 651 700 l 651 596 b 403 721 617 656 540 721 b 49 350 207 721 49 564 z m 151 350 b 403 625 151 507 258 625 b 664 350 553 625 664 507 b 403 75 664 193 553 75 b 151 350 258 75 151 193 z "},"r":{"ha":501,"x_min":0,"x_max":0,"o":"m 79 0 l 182 0 l 182 407 b 371 604 182 525 263 604 b 440 597 400 604 424 601 l 440 708 b 397 711 431 710 413 711 b 182 582 292 711 217 657 l 182 700 l 79 700 z "},"s":{"ha":575,"x_min":0,"x_max":0,"o":"m 25 151 b 289 -17 54 42 160 -17 b 546 186 467 -17 546 86 b 333 410 546 299 468 358 b 181 536 242 444 181 474 b 290 626 181 594 228 626 b 408 557 349 626 383 603 l 492 600 b 289 721 451 679 383 721 b 78 536 165 721 78 644 b 268 332 78 425 157 376 b 443 186 378 289 443 263 b 289 79 443 146 418 79 b 113 185 185 79 129 132 z "},"t":{"ha":428,"x_min":0,"x_max":0,"o":"m 124 196 b 311 -21 124 7 232 -21 b 389 -10 340 -21 371 -18 l 389 79 b 324 75 363 75 343 75 b 226 196 257 75 226 106 l 226 604 l 389 604 l 389 700 l 226 700 l 226 968 l 124 968 l 124 700 l 42 700 l 42 604 l 124 604 z "},"u":{"ha":760,"x_min":0,"x_max":0,"o":"m 71 253 b 322 -11 71 96 167 -11 b 546 90 444 -11 514 42 b 578 21 551 58 564 36 b 664 -11 603 -7 638 -11 b 729 0 686 -11 707 -11 l 729 78 b 693 75 719 76 703 75 b 640 163 654 75 640 101 l 640 700 l 538 700 l 538 282 b 347 85 538 164 458 85 b 174 275 239 85 174 158 l 174 700 l 71 700 z "},"v":{"ha":711,"x_min":0,"x_max":0,"o":"m 321 0 l 392 0 l 692 700 l 582 700 l 356 167 l 129 700 l 21 700 z "},"w":{"ha":1036,"x_min":0,"x_max":0,"o":"m 274 0 l 342 0 l 518 510 l 694 0 l 763 0 l 1015 700 l 908 700 l 728 194 l 554 700 l 482 700 l 307 194 l 126 700 l 21 700 z "},"x":{"ha":713,"x_min":0,"x_max":0,"o":"m 35 0 l 147 0 l 357 293 l 565 0 l 678 0 l 411 374 l 654 700 l 540 700 l 356 451 l 171 700 l 57 700 l 301 372 z "},"y":{"ha":700,"x_min":0,"x_max":0,"o":"m 89 -183 l 89 -278 b 158 -290 108 -286 135 -290 b 294 -237 211 -290 258 -275 b 363 -119 325 -204 346 -162 l 679 700 l 576 700 l 354 110 l 124 700 l 21 700 l 304 -15 l 274 -94 b 218 -179 256 -140 238 -165 b 158 -194 199 -192 179 -194 b 89 -183 135 -194 111 -192 z "},"z":{"ha":693,"x_min":0,"x_max":0,"o":"m 39 0 l 636 0 l 636 96 l 188 96 l 614 632 l 614 700 l 85 700 l 85 604 l 468 604 l 39 61 z "},"à":{"ha":874,"x_min":0,"x_max":0,"o":"m 369 767 l 451 767 l 378 968 l 240 968 z m 49 350 b 403 -21 49 136 207 -21 b 657 103 538 -21 617 40 b 704 3 663 49 682 19 b 778 -17 728 -14 756 -17 b 843 -6 800 -17 821 -15 l 843 72 b 807 69 833 71 817 69 b 754 157 768 69 754 96 l 754 700 l 651 700 l 651 596 b 403 721 617 656 540 721 b 49 350 207 721 49 564 z m 151 350 b 403 625 151 507 258 625 b 664 350 553 625 664 507 b 403 75 664 193 553 75 b 151 350 258 75 151 193 z "},"á":{"ha":874,"x_min":0,"x_max":0,"o":"m 363 767 l 444 767 l 574 968 l 436 968 z m 49 350 b 403 -21 49 136 207 -21 b 657 103 538 -21 617 40 b 704 3 663 49 682 19 b 778 -17 728 -14 756 -17 b 843 -6 800 -17 821 -15 l 843 72 b 807 69 833 71 817 69 b 754 157 768 69 754 96 l 754 700 l 651 700 l 651 596 b 403 721 617 656 540 721 b 49 350 207 721 49 564 z m 151 350 b 403 625 151 507 258 625 b 664 350 553 625 664 507 b 403 75 664 193 553 75 b 151 350 258 75 151 193 z "},"â":{"ha":874,"x_min":0,"x_max":0,"o":"m 208 800 l 335 800 l 426 892 l 518 800 l 644 800 l 469 968 l 383 968 z m 49 350 b 403 -21 49 136 207 -21 b 657 103 538 -21 617 40 b 704 3 663 49 682 19 b 778 -17 728 -14 756 -17 b 843 -6 800 -17 821 -15 l 843 72 b 807 69 833 71 817 69 b 754 157 768 69 754 96 l 754 700 l 651 700 l 651 596 b 403 721 617 656 540 721 b 49 350 207 721 49 564 z m 151 350 b 403 625 151 507 258 625 b 664 350 553 625 664 507 b 403 75 664 193 553 75 b 151 350 258 75 151 193 z "},"ã":{"ha":874,"x_min":0,"x_max":0,"o":"m 213 831 l 281 825 b 340 874 289 860 313 874 b 504 819 393 874 431 819 b 632 956 585 819 622 872 l 564 961 b 500 904 554 921 535 904 b 338 958 449 904 408 958 b 213 831 267 958 221 903 z m 49 350 b 403 -21 49 136 207 -21 b 657 103 538 -21 617 40 b 704 3 663 49 682 19 b 778 -17 728 -14 756 -17 b 843 -6 800 -17 821 -15 l 843 72 b 807 69 833 71 817 69 b 754 157 768 69 754 96 l 754 700 l 651 700 l 651 596 b 403 721 617 656 540 721 b 49 350 207 721 49 564 z m 151 350 b 403 625 151 507 258 625 b 664 350 553 625 664 507 b 403 75 664 193 553 75 b 151 350 258 75 151 193 z "},"ä":{"ha":874,"x_min":0,"x_max":0,"o":"m 563 814 b 632 883 599 814 632 843 b 563 953 632 924 599 953 b 493 883 526 953 493 924 b 563 814 493 843 526 814 z m 276 814 b 346 883 313 814 346 843 b 276 953 346 924 313 953 b 207 883 240 953 207 924 b 276 814 207 843 240 814 z m 49 350 b 403 -21 49 136 207 -21 b 657 103 538 -21 617 40 b 704 3 663 49 682 19 b 778 -17 728 -14 756 -17 b 843 -6 800 -17 821 -15 l 843 72 b 807 69 833 71 817 69 b 754 157 768 69 754 96 l 754 700 l 651 700 l 651 596 b 403 721 617 656 540 721 b 49 350 207 721 49 564 z m 151 350 b 403 625 151 507 258 625 b 664 350 553 625 664 507 b 403 75 664 193 553 75 b 151 350 258 75 151 193 z "},"ā":{"ha":874,"x_min":0,"x_max":0,"o":"m 222 835 l 631 835 l 631 931 l 222 931 z m 49 350 b 403 -21 49 136 207 -21 b 657 103 538 -21 617 40 b 704 3 663 49 682 19 b 778 -17 728 -14 756 -17 b 843 -6 800 -17 821 -15 l 843 72 b 807 69 833 71 817 69 b 754 157 768 69 754 96 l 754 700 l 651 700 l 651 596 b 403 721 617 656 540 721 b 49 350 207 721 49 564 z m 151 350 b 403 625 151 507 258 625 b 664 350 553 625 664 507 b 403 75 664 193 553 75 b 151 350 258 75 151 193 z "},"ă":{"ha":874,"x_min":0,"x_max":0,"o":"m 404 775 b 621 968 513 775 606 850 l 525 968 b 404 867 504 903 465 867 b 283 968 343 867 304 903 l 188 968 b 404 775 203 850 296 775 z m 49 350 b 403 -21 49 136 207 -21 b 657 103 538 -21 617 40 b 704 3 663 49 682 19 b 778 -17 728 -14 756 -17 b 843 -6 800 -17 821 -15 l 843 72 b 807 69 833 71 817 69 b 754 157 768 69 754 96 l 754 700 l 651 700 l 651 596 b 403 721 617 656 540 721 b 49 350 207 721 49 564 z m 151 350 b 403 625 151 507 258 625 b 664 350 553 625 664 507 b 403 75 664 193 553 75 b 151 350 258 75 151 193 z "},"å":{"ha":874,"x_min":0,"x_max":0,"o":"m 424 772 b 558 908 499 772 558 833 b 424 1043 558 982 497 1043 b 288 908 349 1043 288 982 b 424 772 288 833 349 772 z m 424 843 b 358 908 389 843 358 874 b 424 972 358 943 389 972 b 488 908 458 972 488 943 b 424 843 488 874 458 843 z m 49 350 b 403 -21 49 136 207 -21 b 657 103 538 -21 617 40 b 704 3 663 49 682 19 b 778 -17 728 -14 756 -17 b 843 -6 800 -17 821 -15 l 843 72 b 807 69 833 71 817 69 b 754 157 768 69 754 96 l 754 700 l 651 700 l 651 596 b 403 721 617 656 540 721 b 49 350 207 721 49 564 z m 151 350 b 403 625 151 507 258 625 b 664 350 553 625 664 507 b 403 75 664 193 553 75 b 151 350 258 75 151 193 z "},"ǻ":{"ha":874,"x_min":0,"x_max":0,"o":"m 372 1094 l 454 1094 l 583 1296 l 446 1296 z m 417 772 b 551 908 492 772 551 833 b 417 1043 551 982 490 1043 b 281 908 342 1043 281 982 b 417 772 281 833 342 772 z m 417 843 b 351 908 382 843 351 874 b 417 972 351 943 382 972 b 481 908 451 972 481 943 b 417 843 481 874 451 843 z m 49 350 b 403 -21 49 136 207 -21 b 657 103 538 -21 617 40 b 704 3 663 49 682 19 b 778 -17 728 -14 756 -17 b 843 -6 800 -17 821 -15 l 843 72 b 807 69 833 71 817 69 b 754 157 768 69 754 96 l 754 700 l 651 700 l 651 596 b 403 721 617 656 540 721 b 49 350 207 721 49 564 z m 151 350 b 403 625 151 507 258 625 b 664 350 553 625 664 507 b 403 75 664 193 553 75 b 151 350 258 75 151 193 z "},"ą":{"ha":874,"x_min":0,"x_max":0,"o":"m 49 350 b 403 -21 49 136 207 -21 b 657 103 538 -21 617 40 b 704 3 663 49 682 19 b 728 -10 713 -3 719 -7 b 622 -151 671 -32 622 -83 b 763 -275 622 -229 692 -275 b 842 -256 790 -275 817 -268 l 860 -174 b 779 -194 835 -187 808 -194 b 710 -132 743 -194 710 -175 b 843 -6 710 -75 779 -29 l 843 72 b 807 69 833 71 817 69 b 754 157 768 69 754 96 l 754 700 l 651 700 l 651 596 b 403 721 617 656 540 721 b 49 350 207 721 49 564 z m 151 350 b 403 625 151 507 258 625 b 664 350 553 625 664 507 b 403 75 664 193 553 75 b 151 350 258 75 151 193 z "},"æ":{"ha":1388,"x_min":0,"x_max":0,"o":"m 49 350 b 403 -21 49 136 207 -21 b 651 104 540 -21 617 44 l 651 0 l 754 0 l 754 108 b 1014 -21 801 29 894 -21 b 1304 106 1119 -21 1213 6 l 1236 172 b 1014 75 1172 111 1119 75 b 771 328 869 75 776 175 l 1339 328 b 1340 350 1340 339 1340 350 b 1011 721 1340 564 1192 721 b 754 575 903 721 800 657 l 754 700 l 651 700 l 651 596 b 403 721 617 656 540 721 b 49 350 207 721 49 564 z m 151 350 b 403 625 151 507 258 625 b 664 350 553 625 664 507 b 403 75 664 193 553 75 b 151 350 258 75 151 193 z m 778 418 b 1011 625 801 540 894 625 b 1231 418 1121 625 1208 540 z "},"ǽ":{"ha":1388,"x_min":0,"x_max":0,"o":"m 650 767 l 732 767 l 861 968 l 724 968 z m 49 350 b 403 -21 49 136 207 -21 b 651 104 540 -21 617 44 l 651 0 l 754 0 l 754 108 b 1014 -21 801 29 894 -21 b 1304 106 1119 -21 1213 6 l 1236 172 b 1014 75 1172 111 1119 75 b 771 328 869 75 776 175 l 1339 328 b 1340 350 1340 339 1340 350 b 1011 721 1340 564 1192 721 b 754 575 903 721 800 657 l 754 700 l 651 700 l 651 596 b 403 721 617 656 540 721 b 49 350 207 721 49 564 z m 151 350 b 403 625 151 507 258 625 b 664 350 553 625 664 507 b 403 75 664 193 553 75 b 151 350 258 75 151 193 z m 778 418 b 1011 625 801 540 894 625 b 1231 418 1121 625 1208 540 z "},"ć":{"ha":718,"x_min":0,"x_max":0,"o":"m 375 767 l 457 767 l 586 968 l 449 968 z m 49 350 b 421 -21 49 136 215 -21 b 686 85 526 -21 618 15 l 624 157 b 421 75 571 103 500 75 b 151 350 265 75 151 193 b 421 625 151 507 265 625 b 624 543 500 625 571 597 l 686 615 b 421 721 618 685 526 721 b 49 350 215 721 49 564 z "},"ĉ":{"ha":718,"x_min":0,"x_max":0,"o":"m 204 800 l 331 800 l 422 892 l 514 800 l 640 800 l 465 968 l 379 968 z m 49 350 b 421 -21 49 136 215 -21 b 686 85 526 -21 618 15 l 624 157 b 421 75 571 103 500 75 b 151 350 265 75 151 193 b 421 625 151 507 265 625 b 624 543 500 625 571 597 l 686 615 b 421 721 618 685 526 721 b 49 350 215 721 49 564 z "},"č":{"ha":718,"x_min":0,"x_max":0,"o":"m 374 800 l 460 800 l 635 968 l 508 968 l 417 876 l 325 968 l 199 968 z m 49 350 b 421 -21 49 136 215 -21 b 686 85 526 -21 618 15 l 624 157 b 421 75 571 103 500 75 b 151 350 265 75 151 193 b 421 625 151 507 265 625 b 624 543 500 625 571 597 l 686 615 b 421 721 618 685 526 721 b 49 350 215 721 49 564 z "},"ċ":{"ha":718,"x_min":0,"x_max":0,"o":"m 417 800 b 486 869 453 800 486 829 b 417 939 486 910 453 939 b 347 869 381 939 347 910 b 417 800 347 829 381 800 z m 49 350 b 421 -21 49 136 215 -21 b 686 85 526 -21 618 15 l 624 157 b 421 75 571 103 500 75 b 151 350 265 75 151 193 b 421 625 151 507 265 625 b 624 543 500 625 571 597 l 686 615 b 421 721 618 685 526 721 b 49 350 215 721 49 564 z "},"ç":{"ha":718,"x_min":0,"x_max":0,"o":"m 49 350 b 335 -11 49 167 171 25 l 296 -106 b 397 -162 360 -106 397 -115 b 336 -212 397 -193 371 -212 b 261 -189 304 -212 286 -204 l 235 -243 b 338 -275 254 -258 297 -275 b 481 -162 424 -275 481 -243 b 389 -64 481 -101 439 -64 l 408 -21 l 421 -21 b 686 85 526 -21 618 15 l 624 157 b 421 75 571 103 500 75 b 151 350 265 75 151 193 b 421 625 151 507 265 625 b 624 543 500 625 571 597 l 686 615 b 421 721 618 685 526 721 b 49 350 215 721 49 564 z "},"ď":{"ha":1079,"x_min":0,"x_max":0,"o":"m 803 767 l 885 767 l 1014 968 l 876 968 z m 49 350 b 403 -21 49 136 207 -21 b 657 103 538 -21 617 40 b 704 3 663 49 682 19 b 778 -17 728 -14 756 -17 b 843 -6 800 -17 821 -15 l 843 72 b 807 69 833 71 817 69 b 754 157 768 69 754 96 l 754 968 l 651 968 l 651 596 b 403 721 617 656 540 721 b 49 350 207 721 49 564 z m 151 350 b 403 625 151 507 258 625 b 664 350 553 625 664 507 b 403 75 664 193 553 75 b 151 350 258 75 151 193 z "},"đ":{"ha":874,"x_min":0,"x_max":0,"o":"m 49 350 b 403 -21 49 136 207 -21 b 657 103 538 -21 617 40 b 704 3 663 50 682 19 b 778 -17 728 -14 756 -17 b 843 -6 800 -17 821 -15 l 843 72 b 807 69 833 71 817 69 b 754 157 768 69 754 96 l 754 799 l 833 799 l 833 882 l 754 882 l 754 968 l 651 968 l 651 882 l 376 882 l 376 799 l 651 799 l 651 596 b 403 721 617 656 540 721 b 49 350 207 721 49 564 z m 151 350 b 403 625 151 507 258 625 b 664 350 553 625 664 507 b 403 75 664 193 553 75 b 151 350 258 75 151 193 z "},"è":{"ha":765,"x_min":0,"x_max":0,"o":"m 378 767 l 460 767 l 386 968 l 249 968 z m 49 342 b 401 -18 49 124 193 -18 b 685 106 503 -18 597 8 l 617 172 b 401 75 558 111 503 75 b 151 328 254 75 157 174 l 719 328 b 721 372 721 349 721 372 b 399 721 721 565 593 721 b 49 347 199 721 49 574 z m 158 418 b 399 625 165 532 271 625 b 611 418 517 625 611 531 z "},"é":{"ha":765,"x_min":0,"x_max":0,"o":"m 358 767 l 440 767 l 569 968 l 432 968 z m 49 342 b 401 -18 49 124 193 -18 b 685 106 503 -18 597 8 l 617 172 b 401 75 558 111 503 75 b 151 328 254 75 157 174 l 719 328 b 721 372 721 349 721 372 b 399 721 721 565 593 721 b 49 347 199 721 49 574 z m 158 418 b 399 625 165 532 271 625 b 611 418 517 625 611 531 z "},"ê":{"ha":765,"x_min":0,"x_max":0,"o":"m 183 800 l 310 800 l 401 892 l 493 800 l 619 800 l 444 968 l 358 968 z m 49 342 b 401 -18 49 124 193 -18 b 685 106 503 -18 597 8 l 617 172 b 401 75 558 111 503 75 b 151 328 254 75 157 174 l 719 328 b 721 372 721 349 721 372 b 399 721 721 565 593 721 b 49 347 199 721 49 574 z m 158 418 b 399 625 165 532 271 625 b 611 418 517 625 611 531 z "},"ě":{"ha":765,"x_min":0,"x_max":0,"o":"m 351 800 l 438 800 l 613 968 l 486 968 l 394 876 l 303 968 l 176 968 z m 49 342 b 401 -18 49 124 193 -18 b 685 106 503 -18 597 8 l 617 172 b 401 75 558 111 503 75 b 151 328 254 75 157 174 l 719 328 b 721 372 721 349 721 372 b 399 721 721 565 593 721 b 49 347 199 721 49 574 z m 158 418 b 399 625 165 532 271 625 b 611 418 517 625 611 531 z "},"ë":{"ha":765,"x_min":0,"x_max":0,"o":"m 543 814 b 613 883 579 814 613 843 b 543 953 613 924 579 953 b 474 883 507 953 474 924 b 543 814 474 843 507 814 z m 257 814 b 326 883 293 814 326 843 b 257 953 326 924 293 953 b 188 883 221 953 188 924 b 257 814 188 843 221 814 z m 49 342 b 401 -18 49 124 193 -18 b 685 106 503 -18 597 8 l 617 172 b 401 75 558 111 503 75 b 151 328 254 75 157 174 l 719 328 b 721 372 721 349 721 372 b 399 721 721 565 593 721 b 49 347 199 721 49 574 z m 158 418 b 399 625 165 532 271 625 b 611 418 517 625 611 531 z "},"ē":{"ha":765,"x_min":0,"x_max":0,"o":"m 197 835 l 606 835 l 606 931 l 197 931 z m 49 342 b 401 -18 49 124 193 -18 b 685 106 503 -18 597 8 l 617 172 b 401 75 558 111 503 75 b 151 328 254 75 157 174 l 719 328 b 721 372 721 349 721 372 b 399 721 721 565 593 721 b 49 347 199 721 49 574 z m 158 418 b 399 625 165 532 271 625 b 611 418 517 625 611 531 z "},"ĕ":{"ha":765,"x_min":0,"x_max":0,"o":"m 400 775 b 617 968 508 775 601 850 l 521 968 b 400 867 500 903 461 867 b 279 968 339 867 300 903 l 183 968 b 400 775 199 850 292 775 z m 49 342 b 401 -18 49 124 193 -18 b 685 106 503 -18 597 8 l 617 172 b 401 75 558 111 503 75 b 151 328 254 75 157 174 l 719 328 b 721 372 721 349 721 372 b 399 721 721 565 593 721 b 49 347 199 721 49 574 z m 158 418 b 399 625 165 532 271 625 b 611 418 517 625 611 531 z "},"ė":{"ha":765,"x_min":0,"x_max":0,"o":"m 400 814 b 469 883 436 814 469 843 b 400 953 469 924 436 953 b 331 883 364 953 331 924 b 400 814 331 843 364 814 z m 49 342 b 401 -18 49 124 193 -18 b 685 106 503 -18 597 8 l 617 172 b 401 75 558 111 503 75 b 151 328 254 75 157 174 l 719 328 b 721 372 721 349 721 372 b 399 721 721 565 593 721 b 49 347 199 721 49 574 z m 158 418 b 399 625 165 532 271 625 b 611 418 517 625 611 531 z "},"ę":{"ha":765,"x_min":0,"x_max":0,"o":"m 49 342 b 428 -18 49 104 200 -18 b 429 -18 428 -18 429 -18 b 358 -146 390 -49 358 -92 b 496 -269 358 -224 428 -269 b 572 -250 524 -269 547 -262 l 590 -168 b 513 -189 565 -182 540 -189 b 446 -126 478 -189 446 -169 b 575 19 446 -51 519 -17 b 685 106 618 47 658 78 l 617 172 b 401 75 558 111 503 75 b 151 328 254 75 157 174 l 719 328 b 721 372 721 349 721 372 b 399 721 721 565 593 721 b 49 347 199 721 49 574 z m 158 418 b 399 625 165 532 271 625 b 611 418 517 625 611 531 z "},"ĝ":{"ha":833,"x_min":0,"x_max":0,"o":"m 199 800 l 325 800 l 417 892 l 508 800 l 635 800 l 460 968 l 374 968 z m 128 -117 l 75 -199 b 407 -306 171 -268 282 -306 b 643 -232 499 -306 583 -279 b 754 117 747 -150 754 -35 l 754 700 l 651 700 l 651 596 b 403 721 617 656 540 721 b 49 356 207 721 49 567 b 403 -8 49 144 207 -8 b 651 117 540 -8 617 57 l 651 58 b 579 -158 651 -18 643 -106 b 406 -210 536 -193 475 -210 b 128 -117 292 -210 208 -175 z m 151 356 b 403 625 151 510 258 625 b 664 356 553 625 664 510 b 403 88 664 201 553 88 b 151 356 258 88 151 201 z "},"ğ":{"ha":833,"x_min":0,"x_max":0,"o":"m 407 775 b 624 968 515 775 608 850 l 528 968 b 407 867 507 903 468 867 b 286 968 346 867 307 903 l 190 968 b 407 775 206 850 299 775 z m 128 -117 l 75 -199 b 407 -306 171 -268 282 -306 b 643 -232 499 -306 583 -279 b 754 117 747 -150 754 -35 l 754 700 l 651 700 l 651 596 b 403 721 617 656 540 721 b 49 356 207 721 49 567 b 403 -8 49 144 207 -8 b 651 117 540 -8 617 57 l 651 58 b 579 -158 651 -18 643 -106 b 406 -210 536 -193 475 -210 b 128 -117 292 -210 208 -175 z m 151 356 b 403 625 151 510 258 625 b 664 356 553 625 664 510 b 403 88 664 201 553 88 b 151 356 258 88 151 201 z "},"ġ":{"ha":833,"x_min":0,"x_max":0,"o":"m 417 814 b 486 883 453 814 486 843 b 417 953 486 924 453 953 b 347 883 381 953 347 924 b 417 814 347 843 381 814 z m 128 -117 l 75 -199 b 407 -306 171 -268 282 -306 b 643 -232 499 -306 583 -279 b 754 117 747 -150 754 -35 l 754 700 l 651 700 l 651 596 b 403 721 617 656 540 721 b 49 356 207 721 49 567 b 403 -8 49 144 207 -8 b 651 117 540 -8 617 57 l 651 58 b 579 -158 651 -18 643 -106 b 406 -210 536 -193 475 -210 b 128 -117 292 -210 208 -175 z m 151 356 b 403 625 151 510 258 625 b 664 356 553 625 664 510 b 403 88 664 201 553 88 b 151 356 258 88 151 201 z "},"ģ":{"ha":833,"x_min":0,"x_max":0,"o":"m 354 767 l 436 767 l 565 968 l 428 968 z m 128 -117 l 75 -199 b 407 -306 171 -268 282 -306 b 643 -232 499 -306 583 -279 b 754 117 747 -150 754 -35 l 754 700 l 651 700 l 651 596 b 403 721 617 656 540 721 b 49 356 207 721 49 567 b 403 -8 49 144 207 -8 b 651 117 540 -8 617 57 l 651 58 b 579 -158 651 -18 643 -106 b 406 -210 536 -193 475 -210 b 128 -117 292 -210 208 -175 z m 151 356 b 403 625 151 510 258 625 b 664 356 553 625 664 510 b 403 88 664 201 553 88 b 151 356 258 88 151 201 z "},"ĥ":{"ha":760,"x_min":0,"x_max":0,"o":"m -87 1001 l 39 1001 l 131 1093 l 222 1001 l 349 1001 l 174 1169 l 88 1169 z m 79 0 l 182 0 l 182 418 b 372 615 182 536 261 615 b 546 425 481 615 546 542 l 546 151 b 679 -4 546 10 626 -4 b 724 3 693 -4 710 -3 l 724 88 b 697 85 715 86 706 85 b 649 158 657 85 649 104 l 649 447 b 397 711 649 604 553 711 b 182 582 292 711 217 657 l 182 968 l 79 968 z "},"ħ":{"ha":760,"x_min":0,"x_max":0,"o":"m 79 0 l 182 0 l 182 418 b 372 615 182 536 261 615 b 546 425 481 615 546 542 l 546 151 b 679 -4 546 10 626 -4 b 724 3 693 -4 710 -3 l 724 88 b 697 85 715 86 706 85 b 649 158 657 85 649 104 l 649 447 b 397 711 649 604 553 711 b 182 582 292 711 217 657 l 182 796 l 457 796 l 457 879 l 182 879 l 182 968 l 79 968 l 79 879 l 0 879 l 0 796 l 79 796 z "},"ì":{"ha":294,"x_min":0,"x_max":0,"o":"m 100 767 l 182 767 l 108 968 l -29 968 z m 81 132 b 207 -17 81 -3 157 -17 b 272 -6 229 -17 250 -15 l 272 79 b 236 76 263 78 246 76 b 183 150 196 76 183 99 l 183 700 l 81 700 z "},"í":{"ha":294,"x_min":0,"x_max":0,"o":"m 83 767 l 165 767 l 294 968 l 157 968 z m 81 132 b 207 -17 81 -3 157 -17 b 272 -6 229 -17 250 -15 l 272 79 b 236 76 263 78 246 76 b 183 150 196 76 183 99 l 183 700 l 81 700 z "},"î":{"ha":294,"x_min":0,"x_max":0,"o":"m -51 800 l 68 800 l 132 900 l 196 800 l 315 800 l 175 968 l 89 968 z m 81 132 b 207 -17 81 -3 157 -17 b 272 -6 229 -17 250 -15 l 272 79 b 236 76 263 78 246 76 b 183 150 196 76 183 99 l 183 700 l 81 700 z "},"ĩ":{"ha":294,"x_min":0,"x_max":0,"o":"m 18 828 b 65 876 24 863 42 876 b 200 822 100 876 149 822 b 310 956 271 822 301 874 l 244 961 b 193 904 236 921 221 904 b 60 958 161 904 111 958 b -49 833 -3 958 -40 904 z m 81 132 b 207 -17 81 -3 157 -17 b 272 -6 229 -17 250 -15 l 272 79 b 236 76 263 78 246 76 b 183 150 196 76 183 99 l 183 700 l 81 700 z "},"ï":{"ha":294,"x_min":0,"x_max":0,"o":"m 232 814 b 301 883 268 814 301 843 b 232 953 301 924 268 953 b 163 883 196 953 163 924 b 232 814 163 843 196 814 z m 32 814 b 101 883 68 814 101 843 b 32 953 101 924 68 953 b -37 883 -4 953 -37 924 b 32 814 -37 843 -4 814 z m 81 132 b 207 -17 81 -3 157 -17 b 272 -6 229 -17 250 -15 l 272 79 b 236 76 263 78 246 76 b 183 150 196 76 183 99 l 183 700 l 81 700 z "},"ī":{"ha":294,"x_min":0,"x_max":0,"o":"m -33 835 l 297 835 l 297 931 l -33 931 z m 81 132 b 207 -17 81 -3 157 -17 b 272 -6 229 -17 250 -15 l 272 79 b 236 76 263 78 246 76 b 183 150 196 76 183 99 l 183 700 l 81 700 z "},"ĭ":{"ha":294,"x_min":0,"x_max":0,"o":"m 132 783 b 310 968 235 783 306 854 l 214 968 b 132 875 211 914 185 875 b 50 968 79 875 53 914 l -46 968 b 132 783 -42 854 29 783 z m 81 132 b 207 -17 81 -3 157 -17 b 272 -6 229 -17 250 -15 l 272 79 b 236 76 263 78 246 76 b 183 150 196 76 183 99 l 183 700 l 81 700 z "},"į":{"ha":294,"x_min":0,"x_max":0,"o":"m 81 132 b 171 -12 81 26 126 -4 b 79 -157 124 -44 79 -93 b 219 -281 79 -235 149 -281 b 299 -261 247 -281 274 -274 l 317 -179 b 236 -200 292 -193 265 -200 b 167 -137 200 -200 167 -181 b 272 -6 167 -82 231 -32 l 272 79 b 236 76 263 78 246 76 b 183 150 196 76 183 99 l 183 700 l 81 700 z m 132 814 b 201 883 168 814 201 843 b 132 953 201 924 168 953 b 63 883 96 953 63 924 b 132 814 63 843 96 814 z "},"ĳ":{"ha":507,"x_min":0,"x_max":0,"o":"m 375 814 b 444 883 411 814 444 843 b 375 953 444 924 411 953 b 306 883 339 953 306 924 b 375 814 306 843 339 814 z m 132 814 b 201 883 168 814 201 843 b 132 953 201 924 168 953 b 63 883 96 953 63 924 b 132 814 63 843 96 814 z m 83 -4 b 204 -21 108 -12 157 -21 b 357 21 254 -21 310 -18 b 426 204 401 56 426 107 l 426 700 l 324 700 l 324 204 b 215 75 324 111 288 75 b 83 93 175 75 124 81 z m 81 192 l 183 192 l 183 700 l 81 700 z "},"ı":{"ha":294,"x_min":0,"x_max":0,"o":"m 81 132 b 207 -17 81 -3 157 -17 b 272 -6 229 -17 250 -15 l 272 79 b 236 76 263 78 246 76 b 183 150 196 76 183 99 l 183 700 l 81 700 z "},"ĵ":{"ha":289,"x_min":0,"x_max":0,"o":"m -39 800 l 81 800 l 144 900 l 208 800 l 328 800 l 188 968 l 101 968 z m 93 -72 b -4 -193 93 -161 63 -193 b -53 -189 -19 -193 -37 -192 l -53 -286 b -15 -289 -44 -287 -29 -289 b 196 -72 75 -289 196 -261 l 196 700 l 93 700 z "},"ķ":{"ha":647,"x_min":0,"x_max":0,"o":"m 79 0 l 182 0 l 182 218 l 269 319 l 515 0 l 638 0 l 335 393 l 600 700 l 482 700 l 182 354 l 182 968 l 79 968 z m 264 -67 l 190 -268 l 272 -268 l 401 -67 z "},"ĺ":{"ha":361,"x_min":0,"x_max":0,"o":"m 82 1003 l 164 1003 l 293 1204 l 156 1204 z m 81 968 l 183 968 l 183 183 b 271 75 183 107 206 75 b 321 78 288 75 306 75 l 321 -10 b 257 -21 304 -19 279 -21 b 81 176 188 -21 81 -4 z "},"ľ":{"ha":438,"x_min":0,"x_max":0,"o":"m 81 176 b 257 -21 81 -4 188 -21 b 321 -10 279 -21 304 -19 l 321 78 b 271 75 306 75 288 75 b 183 183 206 75 183 107 l 183 968 l 81 968 z m 238 767 l 319 767 l 449 968 l 311 968 z "},"ļ":{"ha":361,"x_min":0,"x_max":0,"o":"m 81 176 b 257 -21 81 -4 188 -21 b 321 -10 279 -21 304 -19 l 321 78 b 271 75 306 75 288 75 b 183 183 206 75 183 107 l 183 968 l 81 968 z m 78 -67 l 4 -268 l 86 -268 l 215 -67 z "},"ŀ":{"ha":438,"x_min":0,"x_max":0,"o":"m 81 176 b 257 -21 81 -4 188 -21 b 321 -10 279 -21 304 -19 l 321 78 b 271 75 306 75 288 75 b 183 183 206 75 183 107 l 183 968 l 81 968 z m 326 442 b 396 511 363 442 396 471 b 326 581 396 551 363 581 b 257 511 290 581 257 551 b 326 442 257 471 290 442 z "},"ł":{"ha":381,"x_min":0,"x_max":0,"o":"m 100 176 b 276 -21 100 -4 207 -21 b 340 -10 299 -21 324 -19 l 340 78 b 290 75 325 75 307 75 b 203 183 225 75 203 107 l 203 492 l 321 563 l 321 669 l 203 599 l 203 968 l 100 968 l 100 538 l 6 482 l 6 375 l 100 431 z "},"ń":{"ha":769,"x_min":0,"x_max":0,"o":"m 357 767 l 439 767 l 568 968 l 431 968 z m 79 0 l 182 0 l 182 418 b 376 615 182 536 263 615 b 556 425 488 615 556 542 l 556 151 b 689 -4 556 10 636 -4 b 733 3 703 -4 719 -3 l 733 88 b 707 85 725 86 715 85 b 658 158 665 85 658 104 l 658 447 b 403 711 658 604 561 711 b 182 582 294 711 218 657 l 182 700 l 79 700 z "},"ň":{"ha":769,"x_min":0,"x_max":0,"o":"m 340 800 l 426 800 l 601 968 l 475 968 l 383 876 l 292 968 l 165 968 z m 79 0 l 182 0 l 182 418 b 376 615 182 536 263 615 b 556 425 488 615 556 542 l 556 151 b 689 -4 556 10 636 -4 b 733 3 703 -4 719 -3 l 733 88 b 707 85 725 86 715 85 b 658 158 665 85 658 104 l 658 447 b 403 711 658 604 561 711 b 182 582 294 711 218 657 l 182 700 l 79 700 z "},"ñ":{"ha":769,"x_min":0,"x_max":0,"o":"m 178 831 l 246 825 b 306 874 254 860 278 874 b 469 819 358 874 396 819 b 597 956 550 819 588 872 l 529 961 b 465 904 519 921 500 904 b 303 958 414 904 374 958 b 178 831 232 958 186 903 z m 79 0 l 182 0 l 182 418 b 376 615 182 536 263 615 b 556 425 488 615 556 542 l 556 151 b 689 -4 556 10 636 -4 b 733 3 703 -4 719 -3 l 733 88 b 707 85 725 86 715 85 b 658 158 665 85 658 104 l 658 447 b 403 711 658 604 561 711 b 182 582 294 711 218 657 l 182 700 l 79 700 z "},"ņ":{"ha":769,"x_min":0,"x_max":0,"o":"m 314 -67 l 240 -268 l 322 -268 l 451 -67 z m 79 0 l 182 0 l 182 418 b 376 615 182 536 263 615 b 556 425 488 615 556 542 l 556 151 b 689 -4 556 10 636 -4 b 733 3 703 -4 719 -3 l 733 88 b 707 85 725 86 715 85 b 658 158 665 85 658 104 l 658 447 b 403 711 658 604 561 711 b 182 582 294 711 218 657 l 182 700 l 79 700 z "},"ò":{"ha":842,"x_min":0,"x_max":0,"o":"m 378 767 l 460 767 l 386 968 l 249 968 z m 49 350 b 421 -21 49 136 215 -21 b 793 350 626 -21 793 136 b 421 721 793 564 626 721 b 49 350 215 721 49 564 z m 151 350 b 421 625 151 507 265 625 b 690 350 576 625 690 507 b 421 75 690 193 576 75 b 151 350 265 75 151 193 z "},"ó":{"ha":842,"x_min":0,"x_max":0,"o":"m 382 767 l 464 767 l 593 968 l 456 968 z m 49 350 b 421 -21 49 136 215 -21 b 793 350 626 -21 793 136 b 421 721 793 564 626 721 b 49 350 215 721 49 564 z m 151 350 b 421 625 151 507 265 625 b 690 350 576 625 690 507 b 421 75 690 193 576 75 b 151 350 265 75 151 193 z "},"ô":{"ha":842,"x_min":0,"x_max":0,"o":"m 203 800 l 329 800 l 421 892 l 513 800 l 639 800 l 464 968 l 378 968 z m 49 350 b 421 -21 49 136 215 -21 b 793 350 626 -21 793 136 b 421 721 793 564 626 721 b 49 350 215 721 49 564 z m 151 350 b 421 625 151 507 265 625 b 690 350 576 625 690 507 b 421 75 690 193 576 75 b 151 350 265 75 151 193 z "},"õ":{"ha":842,"x_min":0,"x_max":0,"o":"m 210 831 l 278 825 b 338 874 286 860 310 874 b 501 819 390 874 428 819 b 629 956 582 819 619 872 l 561 961 b 497 904 551 921 532 904 b 335 958 446 904 406 958 b 210 831 264 958 218 903 z m 49 350 b 421 -21 49 136 215 -21 b 793 350 626 -21 793 136 b 421 721 793 564 626 721 b 49 350 215 721 49 564 z m 151 350 b 421 625 151 507 265 625 b 690 350 576 625 690 507 b 421 75 690 193 576 75 b 151 350 265 75 151 193 z "},"ö":{"ha":842,"x_min":0,"x_max":0,"o":"m 564 814 b 633 883 600 814 633 843 b 564 953 633 924 600 953 b 494 883 528 953 494 924 b 564 814 494 843 528 814 z m 278 814 b 347 883 314 814 347 843 b 278 953 347 924 314 953 b 208 883 242 953 208 924 b 278 814 208 843 242 814 z m 49 350 b 421 -21 49 136 215 -21 b 793 350 626 -21 793 136 b 421 721 793 564 626 721 b 49 350 215 721 49 564 z m 151 350 b 421 625 151 507 265 625 b 690 350 576 625 690 507 b 421 75 690 193 576 75 b 151 350 265 75 151 193 z "},"ō":{"ha":842,"x_min":0,"x_max":0,"o":"m 219 835 l 628 835 l 628 931 l 219 931 z m 49 350 b 421 -21 49 136 215 -21 b 793 350 626 -21 793 136 b 421 721 793 564 626 721 b 49 350 215 721 49 564 z m 151 350 b 421 625 151 507 265 625 b 690 350 576 625 690 507 b 421 75 690 193 576 75 b 151 350 265 75 151 193 z "},"ŏ":{"ha":842,"x_min":0,"x_max":0,"o":"m 421 775 b 638 968 529 775 622 850 l 542 968 b 421 867 521 903 482 867 b 300 968 360 867 321 903 l 204 968 b 421 775 219 850 313 775 z m 49 350 b 421 -21 49 136 215 -21 b 793 350 626 -21 793 136 b 421 721 793 564 626 721 b 49 350 215 721 49 564 z m 151 350 b 421 625 151 507 265 625 b 690 350 576 625 690 507 b 421 75 690 193 576 75 b 151 350 265 75 151 193 z "},"ő":{"ha":842,"x_min":0,"x_max":0,"o":"m 486 767 l 563 767 l 706 968 l 574 968 z m 272 767 l 349 767 l 492 968 l 360 968 z m 49 350 b 421 -21 49 136 215 -21 b 793 350 626 -21 793 136 b 421 721 793 564 626 721 b 49 350 215 721 49 564 z m 151 350 b 421 625 151 507 265 625 b 690 350 576 625 690 507 b 421 75 690 193 576 75 b 151 350 265 75 151 193 z "},"ø":{"ha":842,"x_min":0,"x_max":0,"o":"m 110 1 l 183 -54 l 240 24 b 421 -21 293 -4 356 -21 b 793 350 626 -21 793 136 b 678 622 793 460 749 556 l 731 692 l 656 746 l 604 675 b 421 721 550 704 488 721 b 49 350 215 721 49 564 b 165 76 49 239 93 143 z m 225 157 b 151 350 179 206 151 274 b 421 625 151 507 265 625 b 546 596 467 625 510 614 z m 299 103 l 619 540 b 690 350 664 492 690 425 b 421 75 690 193 576 75 b 299 103 376 75 335 85 z "},"ǿ":{"ha":842,"x_min":0,"x_max":0,"o":"m 393 767 l 475 767 l 604 968 l 467 968 z m 110 1 l 183 -54 l 240 24 b 421 -21 293 -4 356 -21 b 793 350 626 -21 793 136 b 678 622 793 460 749 556 l 731 692 l 656 746 l 604 675 b 421 721 550 704 488 721 b 49 350 215 721 49 564 b 165 76 49 239 93 143 z m 225 157 b 151 350 179 206 151 274 b 421 625 151 507 265 625 b 546 596 467 625 510 614 z m 299 103 l 619 540 b 690 350 664 492 690 425 b 421 75 690 193 576 75 b 299 103 376 75 335 85 z "},"œ":{"ha":1413,"x_min":0,"x_max":0,"o":"m 49 350 b 421 -21 49 136 215 -21 b 735 156 558 -21 672 46 b 1046 -21 792 43 900 -21 b 1356 100 1168 -21 1278 22 l 1286 175 b 1046 82 1232 117 1147 82 b 789 328 893 82 794 175 l 1385 328 b 1386 350 1386 339 1386 350 b 1036 721 1386 564 1229 721 b 738 539 906 721 797 650 b 421 721 675 651 560 721 b 49 350 215 721 49 564 z m 796 418 b 1036 625 821 540 915 625 b 1276 418 1157 625 1251 540 z m 151 350 b 421 625 151 507 265 625 b 690 350 576 625 690 507 b 421 75 690 193 576 75 b 151 350 265 75 151 193 z "},"ŕ":{"ha":501,"x_min":0,"x_max":0,"o":"m 179 767 l 261 767 l 390 968 l 253 968 z m 79 0 l 182 0 l 182 407 b 371 604 182 525 263 604 b 440 597 400 604 424 601 l 440 708 b 397 711 431 710 413 711 b 182 582 292 711 217 657 l 182 700 l 79 700 z "},"ŗ":{"ha":501,"x_min":0,"x_max":0,"o":"m 79 0 l 182 0 l 182 407 b 371 604 182 525 263 604 b 440 597 400 604 424 601 l 440 708 b 397 711 431 710 413 711 b 182 582 292 711 217 657 l 182 700 l 79 700 z m 79 -67 l 6 -268 l 88 -268 l 217 -67 z "},"ř":{"ha":501,"x_min":0,"x_max":0,"o":"m 204 800 l 290 800 l 465 968 l 339 968 l 247 876 l 156 968 l 29 968 z m 79 0 l 182 0 l 182 407 b 371 604 182 525 263 604 b 440 597 400 604 424 601 l 440 708 b 397 711 431 710 413 711 b 182 582 292 711 217 657 l 182 700 l 79 700 z "},"ś":{"ha":575,"x_min":0,"x_max":0,"o":"m 222 767 l 304 767 l 433 968 l 296 968 z m 25 151 b 289 -17 54 42 160 -17 b 546 186 467 -17 546 86 b 333 410 546 299 468 358 b 181 536 242 444 181 474 b 290 626 181 594 228 626 b 408 557 349 626 383 603 l 492 600 b 289 721 451 679 383 721 b 78 536 165 721 78 644 b 268 332 78 425 157 376 b 443 186 378 289 443 263 b 289 79 443 146 418 79 b 113 185 185 79 129 132 z "},"ŝ":{"ha":575,"x_min":0,"x_max":0,"o":"m 78 800 l 204 800 l 296 892 l 388 800 l 514 800 l 339 968 l 253 968 z m 25 151 b 289 -17 54 42 160 -17 b 546 186 467 -17 546 86 b 333 410 546 299 468 358 b 181 536 242 444 181 474 b 290 626 181 594 228 626 b 408 557 349 626 383 603 l 492 600 b 289 721 451 679 383 721 b 78 536 165 721 78 644 b 268 332 78 425 157 376 b 443 186 378 289 443 263 b 289 79 443 146 418 79 b 113 185 185 79 129 132 z "},"š":{"ha":575,"x_min":0,"x_max":0,"o":"m 257 800 l 343 800 l 518 968 l 392 968 l 300 876 l 208 968 l 82 968 z m 25 151 b 289 -17 54 42 160 -17 b 546 186 467 -17 546 86 b 333 410 546 299 468 358 b 181 536 242 444 181 474 b 290 626 181 594 228 626 b 408 557 349 626 383 603 l 492 600 b 289 721 451 679 383 721 b 78 536 165 721 78 644 b 268 332 78 425 157 376 b 443 186 378 289 443 263 b 289 79 443 146 418 79 b 113 185 185 79 129 132 z "},"ș":{"ha":575,"x_min":0,"x_max":0,"o":"m 25 151 b 289 -17 54 42 160 -17 b 546 186 467 -17 546 86 b 333 410 546 299 468 358 b 181 536 242 444 181 474 b 290 626 181 594 228 626 b 408 557 349 626 383 603 l 492 600 b 289 721 451 679 383 721 b 78 536 165 721 78 644 b 268 332 78 425 157 376 b 443 186 378 289 443 263 b 289 79 443 146 418 79 b 113 185 185 79 129 132 z m 197 -67 l 124 -268 l 206 -268 l 335 -67 z "},"ş":{"ha":575,"x_min":0,"x_max":0,"o":"m 25 151 b 238 -12 50 57 132 0 l 194 -106 b 304 -162 264 -106 304 -115 b 239 -212 304 -193 275 -212 b 158 -189 204 -212 185 -204 l 131 -243 b 240 -275 153 -258 197 -275 b 388 -162 328 -275 388 -243 b 288 -64 388 -101 343 -64 l 314 -15 b 546 186 474 -6 546 90 b 333 410 546 299 468 358 b 181 536 242 444 181 474 b 290 626 181 594 228 626 b 408 557 349 626 383 603 l 492 600 b 289 721 451 679 383 721 b 78 536 165 721 78 644 b 268 332 78 425 157 376 b 443 186 378 289 443 263 b 289 79 443 146 418 79 b 113 185 185 79 129 132 z "},"ß":{"ha":764,"x_min":0,"x_max":0,"o":"m 78 0 l 186 0 l 186 750 b 317 889 186 828 243 889 b 446 750 388 889 446 826 b 315 608 446 671 397 624 l 315 511 b 386 524 338 519 361 524 b 614 303 511 524 614 425 b 386 79 614 179 511 79 b 315 92 363 79 338 83 l 315 -14 b 386 -21 339 -18 363 -21 b 722 303 582 -21 722 121 b 492 599 722 482 593 579 b 554 751 536 643 554 690 b 317 989 554 883 449 989 b 78 750 182 989 78 883 z "},"ť":{"ha":465,"x_min":0,"x_max":0,"o":"m 124 196 b 311 -21 124 7 232 -21 b 389 -10 340 -21 371 -18 l 389 79 b 324 75 363 75 343 75 b 226 196 257 75 226 106 l 226 604 l 389 604 l 389 700 l 226 700 l 226 968 l 124 968 l 124 700 l 42 700 l 42 604 l 124 604 z m 307 767 l 389 767 l 518 968 l 381 968 z "},"ţ":{"ha":428,"x_min":0,"x_max":0,"o":"m 124 196 b 311 -21 124 7 232 -21 b 389 -10 340 -21 371 -18 l 389 79 b 324 75 363 75 343 75 b 226 196 257 75 226 106 l 226 604 l 389 604 l 389 700 l 226 700 l 226 968 l 124 968 l 124 700 l 42 700 l 42 604 l 124 604 z m 131 -67 l 57 -268 l 139 -268 l 268 -67 z "},"ŧ":{"ha":428,"x_min":0,"x_max":0,"o":"m 124 196 b 311 -21 124 7 232 -21 b 389 -10 340 -21 371 -18 l 389 79 b 324 75 363 75 343 75 b 226 196 257 75 226 106 l 226 408 l 382 408 l 382 504 l 226 504 l 226 604 l 389 604 l 389 700 l 226 700 l 226 968 l 124 968 l 124 700 l 42 700 l 42 604 l 124 604 l 124 504 l 35 504 l 35 408 l 124 408 z "},"ù":{"ha":760,"x_min":0,"x_max":0,"o":"m 329 767 l 411 767 l 338 968 l 200 968 z m 71 253 b 322 -11 71 96 167 -11 b 546 90 444 -11 514 42 b 578 21 551 58 564 36 b 664 -11 603 -7 638 -11 b 729 0 686 -11 707 -11 l 729 78 b 693 75 719 76 703 75 b 640 163 654 75 640 101 l 640 700 l 538 700 l 538 282 b 347 85 538 164 458 85 b 174 275 239 85 174 158 l 174 700 l 71 700 z "},"ú":{"ha":760,"x_min":0,"x_max":0,"o":"m 317 767 l 399 767 l 528 968 l 390 968 z m 71 253 b 322 -11 71 96 167 -11 b 546 90 444 -11 514 42 b 578 21 551 58 564 36 b 664 -11 603 -7 638 -11 b 729 0 686 -11 707 -11 l 729 78 b 693 75 719 76 703 75 b 640 163 654 75 640 101 l 640 700 l 538 700 l 538 282 b 347 85 538 164 458 85 b 174 275 239 85 174 158 l 174 700 l 71 700 z "},"û":{"ha":760,"x_min":0,"x_max":0,"o":"m 147 800 l 274 800 l 365 892 l 457 800 l 583 800 l 408 968 l 322 968 z m 71 253 b 322 -11 71 96 167 -11 b 546 90 444 -11 514 42 b 578 21 551 58 564 36 b 664 -11 603 -7 638 -11 b 729 0 686 -11 707 -11 l 729 78 b 693 75 719 76 703 75 b 640 163 654 75 640 101 l 640 700 l 538 700 l 538 282 b 347 85 538 164 458 85 b 174 275 239 85 174 158 l 174 700 l 71 700 z "},"ũ":{"ha":760,"x_min":0,"x_max":0,"o":"m 156 831 l 224 825 b 283 874 232 860 256 874 b 447 819 336 874 374 819 b 575 956 528 819 565 872 l 507 961 b 443 904 497 921 478 904 b 281 958 392 904 351 958 b 156 831 210 958 164 903 z m 71 253 b 322 -11 71 96 167 -11 b 546 90 444 -11 514 42 b 578 21 551 58 564 36 b 664 -11 603 -7 638 -11 b 729 0 686 -11 707 -11 l 729 78 b 693 75 719 76 703 75 b 640 163 654 75 640 101 l 640 700 l 538 700 l 538 282 b 347 85 538 164 458 85 b 174 275 239 85 174 158 l 174 700 l 71 700 z "},"ü":{"ha":760,"x_min":0,"x_max":0,"o":"m 508 814 b 578 883 544 814 578 843 b 508 953 578 924 544 953 b 439 883 472 953 439 924 b 508 814 439 843 472 814 z m 222 814 b 292 883 258 814 292 843 b 222 953 292 924 258 953 b 153 883 186 953 153 924 b 222 814 153 843 186 814 z m 71 253 b 322 -11 71 96 167 -11 b 546 90 444 -11 514 42 b 578 21 551 58 564 36 b 664 -11 603 -7 638 -11 b 729 0 686 -11 707 -11 l 729 78 b 693 75 719 76 703 75 b 640 163 654 75 640 101 l 640 700 l 538 700 l 538 282 b 347 85 538 164 458 85 b 174 275 239 85 174 158 l 174 700 l 71 700 z "},"ū":{"ha":760,"x_min":0,"x_max":0,"o":"m 161 835 l 569 835 l 569 931 l 161 931 z m 71 253 b 322 -11 71 96 167 -11 b 546 90 444 -11 514 42 b 578 21 551 58 564 36 b 664 -11 603 -7 638 -11 b 729 0 686 -11 707 -11 l 729 78 b 693 75 719 76 703 75 b 640 163 654 75 640 101 l 640 700 l 538 700 l 538 282 b 347 85 538 164 458 85 b 174 275 239 85 174 158 l 174 700 l 71 700 z "},"ŭ":{"ha":760,"x_min":0,"x_max":0,"o":"m 365 775 b 582 968 474 775 567 850 l 486 968 b 365 867 465 903 426 867 b 244 968 304 867 265 903 l 149 968 b 365 775 164 850 257 775 z m 71 253 b 322 -11 71 96 167 -11 b 546 90 444 -11 514 42 b 578 21 551 58 564 36 b 664 -11 603 -7 638 -11 b 729 0 686 -11 707 -11 l 729 78 b 693 75 719 76 703 75 b 640 163 654 75 640 101 l 640 700 l 538 700 l 538 282 b 347 85 538 164 458 85 b 174 275 239 85 174 158 l 174 700 l 71 700 z "},"ů":{"ha":760,"x_min":0,"x_max":0,"o":"m 365 718 b 500 854 440 718 500 779 b 365 989 500 928 439 989 b 229 854 290 989 229 928 b 365 718 229 779 290 718 z m 365 789 b 300 854 331 789 300 819 b 365 918 300 889 331 918 b 429 854 400 918 429 889 b 365 789 429 819 400 789 z m 71 253 b 322 -11 71 96 167 -11 b 546 90 444 -11 514 42 b 578 21 551 58 564 36 b 664 -11 603 -7 638 -11 b 729 0 686 -11 707 -11 l 729 78 b 693 75 719 76 703 75 b 640 163 654 75 640 101 l 640 700 l 538 700 l 538 282 b 347 85 538 164 458 85 b 174 275 239 85 174 158 l 174 700 l 71 700 z "},"ű":{"ha":760,"x_min":0,"x_max":0,"o":"m 426 767 l 503 767 l 646 968 l 514 968 z m 213 767 l 289 767 l 432 968 l 300 968 z m 71 253 b 322 -11 71 96 167 -11 b 546 90 444 -11 514 42 b 578 21 551 58 564 36 b 664 -11 603 -7 638 -11 b 729 0 686 -11 707 -11 l 729 78 b 693 75 719 76 703 75 b 640 163 654 75 640 101 l 640 700 l 538 700 l 538 282 b 347 85 538 164 458 85 b 174 275 239 85 174 158 l 174 700 l 71 700 z "},"ų":{"ha":760,"x_min":0,"x_max":0,"o":"m 71 253 b 322 -11 71 96 167 -11 b 546 90 444 -11 514 42 b 568 32 550 65 558 46 b 615 -3 581 14 599 3 b 508 -146 557 -25 508 -78 b 649 -269 508 -224 578 -269 b 728 -250 676 -269 703 -262 l 746 -168 b 665 -189 721 -182 694 -189 b 596 -126 629 -189 596 -169 b 729 0 596 -69 665 -24 l 729 78 b 693 75 719 76 703 75 b 640 163 654 75 640 101 l 640 700 l 538 700 l 538 282 b 347 85 538 164 458 85 b 174 275 239 85 174 158 l 174 700 l 71 700 z "},"ẁ":{"ha":1036,"x_min":0,"x_max":0,"o":"m 518 767 l 600 767 l 526 968 l 389 968 z m 274 0 l 342 0 l 518 510 l 694 0 l 763 0 l 1015 700 l 908 700 l 728 194 l 554 700 l 482 700 l 307 194 l 126 700 l 21 700 z "},"ẃ":{"ha":1036,"x_min":0,"x_max":0,"o":"m 438 767 l 519 767 l 649 968 l 511 968 z m 274 0 l 342 0 l 518 510 l 694 0 l 763 0 l 1015 700 l 908 700 l 728 194 l 554 700 l 482 700 l 307 194 l 126 700 l 21 700 z "},"ŵ":{"ha":1036,"x_min":0,"x_max":0,"o":"m 300 800 l 426 800 l 518 892 l 610 800 l 736 800 l 561 968 l 475 968 z m 274 0 l 342 0 l 518 510 l 694 0 l 763 0 l 1015 700 l 908 700 l 728 194 l 554 700 l 482 700 l 307 194 l 126 700 l 21 700 z "},"ẅ":{"ha":1036,"x_min":0,"x_max":0,"o":"m 661 814 b 731 883 697 814 731 843 b 661 953 731 924 697 953 b 592 883 625 953 592 924 b 661 814 592 843 625 814 z m 375 814 b 444 883 411 814 444 843 b 375 953 444 924 411 953 b 306 883 339 953 306 924 b 375 814 306 843 339 814 z m 274 0 l 342 0 l 518 510 l 694 0 l 763 0 l 1015 700 l 908 700 l 728 194 l 554 700 l 482 700 l 307 194 l 126 700 l 21 700 z "},"ỳ":{"ha":697,"x_min":0,"x_max":0,"o":"m 336 767 l 418 767 l 344 968 l 207 968 z m 89 -183 l 89 -278 b 158 -290 108 -286 135 -290 b 294 -237 211 -290 258 -275 b 363 -119 325 -204 346 -162 l 679 700 l 576 700 l 354 110 l 124 700 l 21 700 l 304 -15 l 274 -94 b 218 -179 256 -140 238 -165 b 158 -194 199 -192 179 -194 b 89 -183 135 -194 111 -192 z "},"ý":{"ha":697,"x_min":0,"x_max":0,"o":"m 310 767 l 392 767 l 521 968 l 383 968 z m 89 -183 l 89 -278 b 158 -290 108 -286 135 -290 b 294 -237 211 -290 258 -275 b 363 -119 325 -204 346 -162 l 679 700 l 576 700 l 354 110 l 124 700 l 21 700 l 304 -15 l 274 -94 b 218 -179 256 -140 238 -165 b 158 -194 199 -192 179 -194 b 89 -183 135 -194 111 -192 z "},"ŷ":{"ha":697,"x_min":0,"x_max":0,"o":"m 138 800 l 264 800 l 356 892 l 447 800 l 574 800 l 399 968 l 313 968 z m 89 -183 l 89 -278 b 158 -290 108 -286 135 -290 b 294 -237 211 -290 258 -275 b 363 -119 325 -204 346 -162 l 679 700 l 576 700 l 354 110 l 124 700 l 21 700 l 304 -15 l 274 -94 b 218 -179 256 -140 238 -165 b 158 -194 199 -192 179 -194 b 89 -183 135 -194 111 -192 z "},"ÿ":{"ha":697,"x_min":0,"x_max":0,"o":"m 501 814 b 571 883 538 814 571 843 b 501 953 571 924 538 953 b 432 883 465 953 432 924 b 501 814 432 843 465 814 z m 215 814 b 285 883 251 814 285 843 b 215 953 285 924 251 953 b 146 883 179 953 146 924 b 215 814 146 843 179 814 z m 89 -183 l 89 -278 b 158 -290 108 -286 135 -290 b 294 -237 211 -290 258 -275 b 363 -119 325 -204 346 -162 l 679 700 l 576 700 l 354 110 l 124 700 l 21 700 l 304 -15 l 274 -94 b 218 -179 256 -140 238 -165 b 158 -194 199 -192 179 -194 b 89 -183 135 -194 111 -192 z "},"ź":{"ha":693,"x_min":0,"x_max":0,"o":"m 292 767 l 374 767 l 503 968 l 365 968 z m 39 0 l 636 0 l 636 96 l 188 96 l 614 632 l 614 700 l 85 700 l 85 604 l 468 604 l 39 61 z "},"ž":{"ha":693,"x_min":0,"x_max":0,"o":"m 322 800 l 408 800 l 583 968 l 457 968 l 365 876 l 274 968 l 147 968 z m 39 0 l 636 0 l 636 96 l 188 96 l 614 632 l 614 700 l 85 700 l 85 604 l 468 604 l 39 61 z "},"ż":{"ha":693,"x_min":0,"x_max":0,"o":"m 367 814 b 436 883 403 814 436 843 b 367 953 436 924 403 953 b 297 883 331 953 297 924 b 367 814 297 843 331 814 z m 39 0 l 636 0 l 636 96 l 188 96 l 614 632 l 614 700 l 85 700 l 85 604 l 468 604 l 39 61 z "},"ŋ":{"ha":721,"x_min":0,"x_max":0,"o":"m 79 0 l 182 0 l 182 418 b 371 615 182 536 263 615 b 546 425 482 615 546 542 l 546 -72 b 449 -193 546 -161 515 -193 b 400 -189 433 -193 415 -192 l 400 -286 b 451 -289 411 -287 432 -289 b 600 -232 517 -287 567 -269 b 649 -72 632 -196 649 -143 l 649 447 b 397 711 649 604 553 711 b 182 582 292 711 217 657 l 182 700 l 79 700 z "},"ð":{"ha":744,"x_min":0,"x_max":0,"o":"m 49 301 b 372 -21 49 115 193 -21 b 696 339 581 -21 696 126 b 683 479 696 369 694 414 b 468 843 654 636 571 757 l 572 942 l 506 1013 l 388 901 b 165 990 313 947 235 978 l 146 893 b 311 829 204 882 258 860 l 218 740 l 285 669 l 393 772 b 575 526 460 721 543 625 b 358 624 532 586 447 624 b 49 301 196 624 49 488 z m 157 301 b 372 524 157 428 249 524 b 588 301 496 524 588 428 b 372 79 588 175 496 79 b 157 301 249 79 157 175 z "},"þ":{"ha":833,"x_min":0,"x_max":0,"o":"m 79 -268 l 182 -268 l 182 104 b 431 -21 217 44 293 -21 b 785 350 626 -21 785 136 b 431 721 785 564 626 721 b 182 596 293 721 217 656 l 182 968 l 79 968 z m 169 350 b 431 625 169 507 281 625 b 682 350 575 625 682 507 b 431 75 682 193 575 75 b 169 350 281 75 169 193 z "},"ﬀ":{"ha":758,"x_min":0,"x_max":0,"o":"m 156 0 l 258 0 l 258 604 l 481 604 l 481 0 l 583 0 l 583 604 l 715 604 l 715 700 l 583 700 l 583 772 b 681 893 583 861 614 893 b 746 886 701 893 725 892 l 746 983 b 692 989 735 986 711 989 b 481 758 597 989 481 961 l 481 700 l 258 700 l 258 772 b 356 893 258 861 289 893 b 421 886 376 893 400 892 l 421 983 b 367 989 410 986 386 989 b 156 758 272 989 156 961 l 156 700 l 43 700 l 43 604 l 156 604 z "},"ﬁ":{"ha":694,"x_min":0,"x_max":0,"o":"m 156 0 l 258 0 l 258 604 l 481 604 l 481 132 b 607 -17 481 -3 557 -17 b 672 -6 629 -17 650 -15 l 672 79 b 636 76 663 78 646 76 b 583 150 596 76 583 99 l 583 700 l 258 700 l 258 772 b 383 893 258 861 297 893 b 463 886 408 893 438 892 l 463 983 b 394 989 449 986 417 989 b 224 949 342 989 275 986 b 156 758 178 911 156 861 l 156 700 l 43 700 l 43 604 l 156 604 z "},"ﬂ":{"ha":803,"x_min":0,"x_max":0,"o":"m 156 0 l 258 0 l 258 604 l 390 604 l 390 700 l 258 700 l 258 772 b 356 893 258 861 289 893 b 421 886 376 893 400 892 l 421 983 b 367 989 410 986 386 989 b 224 949 322 989 267 986 b 156 758 178 911 156 861 l 156 700 l 43 700 l 43 604 l 156 604 z m 515 176 b 692 -21 515 -4 622 -21 b 756 -10 714 -21 739 -19 l 756 78 b 706 75 740 75 722 75 b 618 183 640 75 618 107 l 618 968 l 515 968 z "},"ﬃ":{"ha":1019,"x_min":0,"x_max":0,"o":"m 156 0 l 258 0 l 258 604 l 481 604 l 481 0 l 583 0 l 583 604 l 806 604 l 806 132 b 932 -17 806 -3 882 -17 b 997 -6 954 -17 975 -15 l 997 79 b 961 76 988 78 971 76 b 908 150 921 76 908 99 l 908 700 l 583 700 l 583 772 b 708 893 583 861 622 893 b 788 886 733 893 763 892 l 788 983 b 719 989 774 986 742 989 b 549 949 667 989 600 986 b 481 758 503 911 481 861 l 481 700 l 258 700 l 258 772 b 356 893 258 861 289 893 b 421 886 376 893 400 892 l 421 983 b 367 989 410 986 386 989 b 156 758 272 989 156 961 l 156 700 l 43 700 l 43 604 l 156 604 z "},"ﬄ":{"ha":1114,"x_min":0,"x_max":0,"o":"m 156 0 l 258 0 l 258 604 l 481 604 l 481 0 l 583 0 l 583 604 l 715 604 l 715 700 l 583 700 l 583 772 b 681 893 583 861 614 893 b 746 886 701 893 725 892 l 746 983 b 692 989 735 986 711 989 b 481 758 597 989 481 961 l 481 700 l 258 700 l 258 772 b 356 893 258 861 289 893 b 421 886 376 893 400 892 l 421 983 b 367 989 410 986 386 989 b 156 758 272 989 156 961 l 156 700 l 43 700 l 43 604 l 156 604 z m 826 176 b 1003 -21 826 -4 933 -21 b 1067 -10 1025 -21 1050 -19 l 1067 78 b 1017 75 1051 75 1033 75 b 929 183 951 75 929 107 l 929 968 l 826 968 z "},"¹":{"ha":308,"x_min":0,"x_max":0,"o":"m 122 456 l 201 456 l 201 968 l 56 968 l 56 894 l 122 894 z "},"²":{"ha":451,"x_min":0,"x_max":0,"o":"m 61 456 l 399 456 l 399 531 l 178 531 l 339 710 b 386 829 385 764 386 799 b 232 979 386 913 317 979 b 79 817 147 979 79 907 l 157 817 b 232 904 157 864 190 904 b 307 829 272 904 307 871 b 274 757 307 804 294 782 l 61 511 z "},"³":{"ha":481,"x_min":0,"x_max":0,"o":"m 228 444 b 421 622 339 444 421 518 b 311 785 421 697 375 761 b 256 793 293 790 278 793 l 396 922 l 396 968 l 85 968 l 85 894 l 269 894 l 122 753 l 150 717 b 222 728 164 724 197 728 b 344 622 296 728 344 682 b 228 521 344 563 297 521 b 106 597 169 521 124 550 l 36 571 b 228 444 64 494 138 444 z "},"⁴":{"ha":485,"x_min":0,"x_max":0,"o":"m 325 456 l 404 456 l 404 735 l 325 735 l 325 632 l 133 632 l 301 968 l 219 968 l 42 611 l 42 557 l 325 557 z "},"⁵":{"ha":461,"x_min":0,"x_max":0,"o":"m 211 444 b 399 631 314 444 399 526 b 217 814 399 731 318 814 b 169 806 197 814 178 810 l 186 894 l 368 894 l 368 968 l 118 968 l 76 733 l 133 715 b 204 739 151 731 178 739 b 322 631 271 739 322 693 b 211 521 322 571 272 521 b 101 596 167 521 124 550 l 32 563 b 211 444 68 492 135 444 z "},"⁶":{"ha":490,"x_min":0,"x_max":0,"o":"m 246 444 b 428 629 346 444 428 525 b 256 807 428 729 344 807 b 233 806 242 807 233 806 l 347 968 l 253 968 b 125 778 131 786 128 782 b 63 629 89 724 63 683 b 246 444 63 526 146 444 z m 246 521 b 143 626 188 521 143 565 b 246 732 143 688 186 732 b 351 626 304 732 351 685 b 246 521 351 569 304 521 z "},"⁷":{"ha":474,"x_min":0,"x_max":0,"o":"m 115 456 l 203 456 l 439 932 l 439 968 l 71 968 l 71 894 l 333 894 z "},"⁸":{"ha":494,"x_min":0,"x_max":0,"o":"m 249 444 b 424 615 346 444 424 522 b 338 753 424 682 382 736 b 386 842 365 771 386 807 b 249 979 386 918 324 979 b 108 842 171 979 108 918 b 157 753 108 807 129 771 b 71 615 113 736 71 682 b 249 444 71 522 149 444 z m 249 774 b 186 840 213 774 186 804 b 249 904 186 874 213 904 b 308 840 282 904 308 874 b 249 774 308 804 282 774 z m 249 521 b 150 615 194 521 150 564 b 249 710 150 668 194 710 b 344 615 300 710 344 668 b 249 521 344 564 300 521 z "},"⁹":{"ha":497,"x_min":0,"x_max":0,"o":"m 143 456 l 236 456 l 358 638 b 426 801 397 696 426 742 b 249 979 426 901 346 979 b 71 799 151 979 71 899 b 240 628 71 699 156 628 b 267 631 256 628 267 631 z m 249 699 b 147 801 192 699 147 744 b 249 904 147 857 192 904 b 351 801 306 904 351 857 b 249 699 351 744 314 699 z "},"⁰":{"ha":499,"x_min":0,"x_max":0,"o":"m 249 444 b 426 607 342 444 418 514 b 428 713 428 629 428 653 b 426 818 428 771 428 796 b 249 979 418 911 342 979 b 74 818 161 979 85 907 b 71 713 71 797 71 769 b 74 607 71 654 71 628 b 249 444 85 518 161 444 z m 249 521 b 149 613 199 521 157 561 b 147 713 147 632 147 654 b 149 813 147 764 147 793 b 249 904 157 864 199 904 b 350 813 301 904 346 865 b 353 713 353 792 353 768 b 350 613 353 656 353 632 b 249 521 346 560 301 521 z "},"₁":{"ha":308,"x_min":0,"x_max":0,"o":"m 122 0 l 201 0 l 201 513 l 56 513 l 56 439 l 122 439 z "},"₂":{"ha":451,"x_min":0,"x_max":0,"o":"m 61 0 l 399 0 l 399 75 l 178 75 l 339 254 b 386 374 385 308 386 343 b 232 524 386 457 317 524 b 79 361 147 524 79 451 l 157 361 b 232 449 157 408 190 449 b 307 374 272 449 307 415 b 274 301 307 349 294 326 l 61 56 z "},"₃":{"ha":481,"x_min":0,"x_max":0,"o":"m 36 115 b 228 -11 64 39 138 -11 b 421 167 339 -11 421 63 b 311 329 421 242 375 306 b 256 338 293 335 278 338 l 396 467 l 396 513 l 85 513 l 85 439 l 269 439 l 122 297 l 150 261 b 222 272 164 268 197 272 b 344 167 296 272 344 226 b 228 65 344 107 297 65 b 106 142 169 65 124 94 z "},"₄":{"ha":485,"x_min":0,"x_max":0,"o":"m 42 101 l 325 101 l 325 0 l 404 0 l 404 279 l 325 279 l 325 176 l 133 176 l 301 513 l 219 513 l 42 156 z "},"₅":{"ha":461,"x_min":0,"x_max":0,"o":"m 32 107 b 211 -11 68 36 135 -11 b 399 175 314 -11 399 71 b 217 358 399 275 318 358 b 169 350 197 358 178 354 l 186 439 l 368 439 l 368 513 l 118 513 l 76 278 l 133 260 b 204 283 151 275 178 283 b 322 175 271 283 322 238 b 211 65 322 115 272 65 b 101 140 167 65 124 94 z "},"₆":{"ha":490,"x_min":0,"x_max":0,"o":"m 246 -11 b 428 174 346 -11 428 69 b 256 351 428 274 344 351 b 233 350 242 351 233 350 l 347 513 l 253 513 b 125 322 131 331 128 326 b 63 174 89 268 63 228 b 246 -11 63 71 146 -11 z m 246 65 b 143 171 188 65 143 110 b 246 276 143 232 186 276 b 351 171 304 276 351 229 b 246 65 351 114 304 65 z "},"₇":{"ha":474,"x_min":0,"x_max":0,"o":"m 115 0 l 203 0 l 439 476 l 439 513 l 71 513 l 71 439 l 333 439 z "},"₈":{"ha":494,"x_min":0,"x_max":0,"o":"m 71 160 b 249 -11 71 67 149 -11 b 424 160 346 -11 424 67 b 338 297 424 226 382 281 b 386 386 365 315 386 351 b 249 524 386 463 324 524 b 108 386 171 524 108 463 b 157 297 108 351 129 315 b 71 160 113 281 71 226 z m 249 318 b 186 385 213 318 186 349 b 249 449 186 418 213 449 b 308 385 282 449 308 418 b 249 318 308 349 282 318 z m 150 160 b 249 254 150 213 194 254 b 344 160 300 254 344 213 b 249 65 344 108 300 65 b 150 160 194 65 150 108 z "},"₉":{"ha":481,"x_min":0,"x_max":0,"o":"m 135 0 l 228 0 l 350 182 b 418 346 389 240 418 286 b 240 524 418 446 338 524 b 63 343 143 524 63 443 b 232 172 63 243 147 172 b 258 175 247 172 258 175 z m 240 243 b 139 346 183 243 139 289 b 240 449 139 401 183 449 b 343 346 297 449 343 401 b 240 243 343 289 306 243 z "},"₀":{"ha":499,"x_min":0,"x_max":0,"o":"m 74 151 b 249 -11 85 63 161 -11 b 426 151 342 -11 418 58 b 428 257 428 174 428 197 b 426 363 428 315 428 340 b 249 524 418 456 342 524 b 74 363 161 524 85 451 b 71 257 71 342 71 314 b 74 151 71 199 71 172 z m 149 157 b 147 257 147 176 147 199 b 149 357 147 308 147 338 b 249 449 157 408 199 449 b 350 357 301 449 346 410 b 353 257 353 336 353 313 b 350 157 353 200 353 176 b 249 65 346 104 301 65 b 149 157 199 65 157 106 z "},"½":{"ha":978,"x_min":0,"x_max":0,"o":"m 108 0 l 211 0 l 753 968 l 650 968 z m 150 456 l 229 456 l 229 968 l 83 968 l 83 894 l 150 894 z m 560 0 l 897 0 l 897 75 l 676 75 l 838 254 b 885 374 883 308 885 343 b 731 524 885 457 815 524 b 578 361 646 524 578 451 l 656 361 b 731 449 656 408 689 449 b 806 374 771 449 806 415 b 772 301 806 349 793 326 l 560 56 z "},"⅓":{"ha":1035,"x_min":0,"x_max":0,"o":"m 108 0 l 211 0 l 753 968 l 650 968 z m 150 456 l 229 456 l 229 968 l 83 968 l 83 894 l 150 894 z m 575 115 b 767 -11 603 39 676 -11 b 960 167 878 -11 960 63 b 850 329 960 242 914 306 b 794 338 832 335 817 338 l 935 467 l 935 513 l 624 513 l 624 439 l 808 439 l 661 297 l 689 261 b 761 272 703 268 736 272 b 883 167 835 272 883 226 b 767 65 883 107 836 65 b 644 142 708 65 663 94 z "},"⅔":{"ha":1122,"x_min":0,"x_max":0,"o":"m 244 0 l 347 0 l 889 968 l 786 968 z m 89 456 l 426 456 l 426 531 l 206 531 l 367 710 b 414 829 413 764 414 799 b 260 979 414 913 344 979 b 107 817 175 979 107 907 l 185 817 b 260 904 185 864 218 904 b 335 829 300 904 335 871 b 301 757 335 804 322 782 l 89 511 z m 663 115 b 854 -11 690 39 764 -11 b 1047 167 965 -11 1047 63 b 938 329 1047 242 1001 306 b 882 338 919 335 904 338 l 1022 467 l 1022 513 l 711 513 l 711 439 l 896 439 l 749 297 l 776 261 b 849 272 790 268 824 272 b 971 167 922 272 971 226 b 854 65 971 107 924 65 b 732 142 796 65 750 94 z "},"¼":{"ha":933,"x_min":0,"x_max":0,"o":"m 108 0 l 211 0 l 753 968 l 650 968 z m 150 456 l 229 456 l 229 968 l 83 968 l 83 894 l 150 894 z m 476 101 l 760 101 l 760 0 l 839 0 l 839 279 l 760 279 l 760 176 l 568 176 l 736 513 l 654 513 l 476 156 z "},"¾":{"ha":1069,"x_min":0,"x_max":0,"o":"m 244 0 l 347 0 l 889 968 l 786 968 z m 242 444 b 435 622 353 444 435 518 b 325 785 435 697 389 761 b 269 793 307 790 292 793 l 410 922 l 410 968 l 99 968 l 99 894 l 283 894 l 136 753 l 164 717 b 236 728 178 724 211 728 b 358 622 310 728 358 682 b 242 521 358 563 311 521 b 119 597 183 521 138 550 l 50 571 b 242 444 78 494 151 444 z m 613 101 l 896 101 l 896 0 l 975 0 l 975 279 l 896 279 l 896 176 l 704 176 l 872 513 l 790 513 l 613 156 z "},".":{"ha":261,"x_min":0,"x_max":0,"o":"m 61 60 b 131 -10 61 19 94 -10 b 200 60 167 -10 200 19 b 131 129 200 100 167 129 b 61 60 94 129 61 100 z "},",":{"ha":267,"x_min":0,"x_max":0,"o":"m -50 -178 l 38 -178 l 213 154 l 75 154 z "},":":{"ha":261,"x_min":0,"x_max":0,"o":"m 131 472 b 200 542 167 472 200 501 b 131 611 200 582 167 611 b 61 542 94 611 61 582 b 131 472 61 501 94 472 z m 131 89 b 200 158 167 89 200 118 b 131 228 200 199 167 228 b 61 158 94 228 61 199 b 131 89 61 118 94 89 z "},";":{"ha":317,"x_min":0,"x_max":0,"o":"m 158 472 b 228 542 194 472 228 501 b 158 611 228 582 194 611 b 89 542 122 611 89 582 b 158 472 89 501 122 472 z m -21 -156 l 71 -156 l 233 154 l 96 154 z "},"•":{"ha":364,"x_min":0,"x_max":0,"o":"m 182 239 b 296 353 242 239 296 286 b 182 467 296 419 242 467 b 68 353 122 467 68 419 b 182 239 68 286 122 239 z "},"·":{"ha":261,"x_min":0,"x_max":0,"o":"m 131 281 b 200 350 167 281 200 310 b 131 419 200 390 167 419 b 61 350 94 419 61 390 b 131 281 61 310 94 281 z "},"…":{"ha":756,"x_min":0,"x_max":0,"o":"m 556 60 b 625 -10 556 19 589 -10 b 694 60 661 -10 694 19 b 625 129 694 100 661 129 b 556 60 589 129 556 100 z m 308 60 b 378 -10 308 19 342 -10 b 447 60 414 -10 447 19 b 378 129 447 100 414 129 b 308 60 342 129 308 100 z m 61 60 b 131 -10 61 19 94 -10 b 200 60 167 -10 200 19 b 131 129 200 100 167 129 b 61 60 94 129 61 100 z "},"‚":{"ha":260,"x_min":0,"x_max":0,"o":"m -50 -178 l 38 -178 l 213 154 l 75 154 z "},"„":{"ha":474,"x_min":0,"x_max":0,"o":"m 181 -178 l 268 -178 l 443 154 l 306 154 z m -50 -178 l 38 -178 l 213 154 l 75 154 z "},"”":{"ha":490,"x_min":0,"x_max":0,"o":"m 225 618 l 313 618 l 494 968 l 357 968 z m -6 618 l 82 618 l 264 968 l 126 968 z "},"\"":{"ha":401,"x_min":0,"x_max":0,"o":"m 253 618 l 324 618 l 340 968 l 236 968 z m 78 618 l 149 618 l 165 968 l 61 968 z "},"’":{"ha":260,"x_min":0,"x_max":0,"o":"m -6 618 l 82 618 l 264 968 l 126 968 z "},"‘":{"ha":249,"x_min":0,"x_max":0,"o":"m 6 618 l 143 618 l 275 968 l 188 968 z "},"“":{"ha":479,"x_min":0,"x_max":0,"o":"m 236 618 l 374 618 l 506 968 l 418 968 z m 6 618 l 143 618 l 275 968 l 188 968 z "},"'":{"ha":226,"x_min":0,"x_max":0,"o":"m 78 618 l 149 618 l 165 968 l 61 968 z "},"*":{"ha":539,"x_min":0,"x_max":0,"o":"m 175 576 l 269 707 l 364 576 l 429 626 l 324 746 l 476 793 l 449 871 l 303 810 l 311 968 l 229 968 l 236 810 l 92 871 l 63 793 l 215 746 l 111 626 z "},"†":{"ha":400,"x_min":0,"x_max":0,"o":"m 151 418 l 249 418 l 242 750 l 354 746 l 354 836 l 244 832 l 249 968 l 151 968 l 156 832 l 46 836 l 46 746 l 158 750 z "},"‡":{"ha":400,"x_min":0,"x_max":0,"o":"m 151 418 l 249 418 l 244 554 l 354 550 l 354 640 l 242 636 l 242 750 l 354 746 l 354 836 l 244 832 l 249 968 l 151 968 l 156 832 l 46 836 l 46 746 l 158 750 l 158 636 l 46 640 l 46 550 l 156 554 z "},"-":{"ha":533,"x_min":0,"x_max":0,"o":"m 58 318 l 475 318 l 475 414 l 58 414 z "},"–":{"ha":633,"x_min":0,"x_max":0,"o":"m 57 318 l 576 318 l 576 414 l 57 414 z "},"—":{"ha":1000,"x_min":0,"x_max":0,"o":"m 57 318 l 943 318 l 943 414 l 57 414 z "},"_":{"ha":411,"x_min":0,"x_max":0,"o":"m -3 -172 l -3 -268 l 414 -268 l 414 -172 z "},"|":{"ha":344,"x_min":0,"x_max":0,"o":"m 121 -35 l 224 -35 l 224 1003 l 121 1003 z "},"¦":{"ha":344,"x_min":0,"x_max":0,"o":"m 121 576 l 224 576 l 224 968 l 121 968 z m 121 0 l 224 0 l 224 408 l 121 408 z "},"+":{"ha":533,"x_min":0,"x_max":0,"o":"m 214 264 l 319 264 l 319 435 l 475 435 l 475 531 l 319 531 l 319 703 l 214 703 l 214 531 l 58 531 l 58 435 l 214 435 z "},"−":{"ha":533,"x_min":0,"x_max":0,"o":"m 58 435 l 475 435 l 475 531 l 58 531 z "},"±":{"ha":533,"x_min":0,"x_max":0,"o":"m 214 264 l 319 264 l 319 435 l 475 435 l 475 531 l 319 531 l 319 703 l 214 703 l 214 531 l 58 531 l 58 435 l 214 435 z m 58 0 l 475 0 l 475 96 l 58 96 z "},"×":{"ha":533,"x_min":0,"x_max":0,"o":"m 115 247 l 267 399 l 417 247 l 481 313 l 331 463 l 481 613 l 417 676 l 267 525 l 115 676 l 53 613 l 203 463 l 53 313 z "},"÷":{"ha":592,"x_min":0,"x_max":0,"o":"m 296 606 b 365 675 332 606 365 635 b 296 744 365 715 332 744 b 226 675 260 744 226 715 b 296 606 226 635 260 606 z m 58 435 l 533 435 l 533 531 l 58 531 z m 296 221 b 365 290 332 221 365 250 b 296 360 365 331 332 360 b 226 290 260 360 226 331 b 296 221 226 250 260 221 z "},"=":{"ha":592,"x_min":0,"x_max":0,"o":"m 58 558 l 533 558 l 533 654 l 58 654 z m 58 331 l 533 331 l 533 426 l 58 426 z "},"≠":{"ha":592,"x_min":0,"x_max":0,"o":"m 89 213 l 157 172 l 250 331 l 533 331 l 533 426 l 306 426 l 383 558 l 533 558 l 533 654 l 440 654 l 504 763 l 436 803 l 349 654 l 58 654 l 58 558 l 292 558 l 214 426 l 58 426 l 58 331 l 158 331 z "},"#":{"ha":760,"x_min":0,"x_max":0,"o":"m 121 161 l 217 161 l 256 311 l 419 311 l 381 161 l 476 161 l 515 311 l 661 311 l 661 397 l 536 397 l 578 561 l 722 561 l 722 647 l 600 647 l 638 796 l 543 796 l 504 647 l 340 647 l 379 796 l 283 796 l 246 647 l 100 647 l 100 561 l 224 561 l 182 397 l 38 397 l 38 311 l 160 311 z m 276 397 l 318 561 l 483 561 l 440 397 z "},"¤":{"ha":896,"x_min":0,"x_max":0,"o":"m 74 144 l 144 75 b 253 201 144 75 213 154 b 449 136 308 158 376 136 b 643 199 519 136 588 157 b 754 75 685 150 754 75 l 825 143 b 703 257 825 143 750 213 b 776 463 750 314 776 386 b 703 669 776 539 750 611 l 825 782 l 754 851 l 644 725 b 449 790 588 767 521 790 b 254 725 378 790 310 767 l 144 851 l 74 782 l 194 668 b 122 463 147 610 122 538 b 194 257 122 386 147 314 z m 449 226 b 219 463 322 226 219 332 b 449 700 219 593 322 700 b 679 463 575 700 679 593 b 449 226 679 332 575 226 z "},"¬":{"ha":789,"x_min":0,"x_max":0,"o":"m 58 531 l 625 531 l 625 251 l 731 251 l 731 626 l 58 626 z "},"<":{"ha":575,"x_min":0,"x_max":0,"o":"m 61 457 l 503 186 l 503 294 l 171 494 l 503 696 l 503 804 l 61 532 z "},">":{"ha":574,"x_min":0,"x_max":0,"o":"m 72 186 l 514 457 l 514 532 l 72 804 l 72 696 l 404 494 l 72 294 z "},"≤":{"ha":575,"x_min":0,"x_max":0,"o":"m 61 457 l 503 186 l 503 294 l 171 494 l 503 696 l 503 804 l 61 532 z m 28 0 l 503 0 l 503 96 l 28 96 z "},"≥":{"ha":575,"x_min":0,"x_max":0,"o":"m 72 186 l 514 457 l 514 532 l 72 804 l 72 696 l 404 494 l 72 294 z m 72 0 l 547 0 l 547 96 l 72 96 z "},"^":{"ha":722,"x_min":0,"x_max":0,"o":"m 32 486 l 140 486 l 361 858 l 581 486 l 690 486 l 400 968 l 322 968 z "},"~":{"ha":581,"x_min":0,"x_max":0,"o":"m 39 421 l 107 415 b 181 464 117 450 146 464 b 400 410 251 464 301 410 b 542 546 489 410 531 463 l 474 551 b 396 494 460 511 435 494 b 178 549 326 494 272 549 b 39 421 99 549 49 493 z "},"≈":{"ha":589,"x_min":0,"x_max":0,"o":"m 39 525 l 107 519 b 181 568 117 554 146 568 b 400 514 251 568 301 514 b 542 650 489 514 531 567 l 474 656 b 396 599 460 615 435 599 b 178 653 326 599 272 653 b 39 525 99 653 49 597 z m 47 338 l 115 332 b 189 381 125 367 154 381 b 408 326 260 381 310 326 b 550 463 497 326 539 379 l 482 468 b 404 411 468 428 443 411 b 186 465 335 411 281 465 b 47 338 107 465 57 410 z "},"‹":{"ha":358,"x_min":0,"x_max":0,"o":"m 201 108 l 310 108 l 157 351 l 310 594 l 201 594 l 49 351 z "},"›":{"ha":358,"x_min":0,"x_max":0,"o":"m 49 108 l 157 108 l 310 351 l 157 594 l 49 594 l 201 351 z "},"«":{"ha":575,"x_min":0,"x_max":0,"o":"m 418 108 l 526 108 l 374 351 l 526 594 l 418 594 l 265 351 z m 201 108 l 310 108 l 157 351 l 310 594 l 201 594 l 49 351 z "},"»":{"ha":575,"x_min":0,"x_max":0,"o":"m 265 108 l 374 108 l 526 351 l 374 594 l 265 594 l 418 351 z m 49 108 l 157 108 l 310 351 l 157 594 l 49 594 l 201 351 z "},"/":{"ha":586,"x_min":0,"x_max":0,"o":"m 1 -189 l 97 -189 l 533 1004 l 435 1004 z "},"\\":{"ha":586,"x_min":0,"x_max":0,"o":"m 472 -189 l 568 -189 l 132 1004 l 36 1004 z "},"(":{"ha":408,"x_min":0,"x_max":0,"o":"m 65 429 b 379 -237 65 174 172 -56 l 431 -182 b 168 429 260 -14 168 179 b 431 1040 168 679 260 872 l 379 1096 b 65 429 172 914 65 685 z "},")":{"ha":408,"x_min":0,"x_max":0,"o":"m -22 -182 l 29 -237 b 343 429 236 -56 343 174 b 29 1096 343 685 236 914 l -22 1040 b 240 429 149 872 240 679 b -22 -182 240 179 149 -14 z "},"[":{"ha":426,"x_min":0,"x_max":0,"o":"m 225 -168 l 225 868 l 429 868 l 429 968 l 117 968 l 117 -268 l 429 -268 l 429 -168 z "},"]":{"ha":426,"x_min":0,"x_max":0,"o":"m -3 -168 l -3 -268 l 310 -268 l 310 968 l -3 968 l -3 868 l 201 868 l 201 -168 z "},"{":{"ha":442,"x_min":0,"x_max":0,"o":"m 157 -90 b 324 -268 157 -193 226 -268 l 386 -268 l 386 -186 l 335 -186 b 260 -90 279 -186 260 -136 l 260 158 b 213 311 260 213 251 272 b 157 350 196 328 178 340 b 213 389 178 360 196 372 b 260 542 251 428 260 488 l 260 790 b 335 886 260 836 279 886 l 386 886 l 386 968 l 324 968 b 157 790 226 968 157 893 l 157 526 b 101 403 157 467 139 425 b 39 383 71 385 39 383 l 39 317 b 101 297 39 317 71 315 b 157 174 139 275 157 233 z "},"}":{"ha":442,"x_min":0,"x_max":0,"o":"m 56 -186 l 56 -268 l 118 -268 b 285 -90 215 -268 285 -193 l 285 174 b 340 297 285 233 303 275 b 403 317 371 315 403 317 l 403 383 b 340 403 403 383 371 385 b 285 526 303 425 285 467 l 285 790 b 118 968 285 893 215 968 l 56 968 l 56 886 l 107 886 b 182 790 163 886 182 836 l 182 542 b 229 389 182 488 190 428 b 285 350 246 372 264 360 b 229 311 264 340 246 328 b 182 158 190 272 182 213 l 182 -90 b 107 -186 182 -136 163 -186 z "},"⁄":{"ha":675,"x_min":0,"x_max":0,"o":"m -29 0 l 78 0 l 704 968 l 597 968 z "},"%":{"ha":1018,"x_min":0,"x_max":0,"o":"m 267 556 b 483 772 386 556 483 653 b 267 989 483 892 386 989 b 50 772 147 989 50 892 b 267 556 50 653 147 556 z m 144 0 l 251 0 l 878 968 l 771 968 z m 267 640 b 142 772 197 640 142 699 b 267 904 142 844 197 904 b 392 772 335 904 392 844 b 267 640 392 699 335 640 z m 535 196 b 751 -21 535 76 632 -21 b 968 196 871 -21 968 76 b 751 413 968 315 871 413 b 535 196 632 413 535 315 z m 626 196 b 751 328 626 268 682 328 b 876 196 819 328 876 268 b 751 64 876 122 819 64 b 626 196 682 64 626 122 z "},"‰":{"ha":1546,"x_min":0,"x_max":0,"o":"m 267 556 b 483 772 386 556 483 653 b 267 989 483 892 386 989 b 50 772 147 989 50 892 b 267 556 50 653 147 556 z m 144 0 l 251 0 l 878 968 l 771 968 z m 267 640 b 142 772 197 640 142 699 b 267 904 142 844 197 904 b 392 772 335 904 392 844 b 267 640 392 699 335 640 z m 1063 196 b 1279 -21 1063 76 1160 -21 b 1496 196 1399 -21 1496 76 b 1279 413 1496 315 1399 413 b 1063 196 1160 413 1063 315 z m 535 196 b 751 -21 535 76 632 -21 b 968 196 871 -21 968 76 b 751 413 968 315 871 413 b 535 196 632 413 535 315 z m 1154 196 b 1279 328 1154 268 1210 328 b 1404 196 1347 328 1404 268 b 1279 64 1404 122 1347 64 b 1154 196 1210 64 1154 122 z m 626 196 b 751 328 626 268 682 328 b 876 196 819 328 876 268 b 751 64 876 122 819 64 b 626 196 682 64 626 122 z "},"°":{"ha":500,"x_min":0,"x_max":0,"o":"m 250 606 b 433 789 351 606 433 688 b 250 972 433 890 351 972 b 67 789 149 972 67 890 b 250 606 67 688 149 606 z m 250 697 b 165 789 204 697 165 739 b 250 881 165 839 204 881 b 335 789 296 881 335 839 b 250 697 335 739 296 697 z "},"´":{"ha":747,"x_min":0,"x_max":0,"o":"m 321 767 l 403 767 l 532 968 l 394 968 z "},"`":{"ha":747,"x_min":0,"x_max":0,"o":"m 346 767 l 428 767 l 354 968 l 217 968 z "},"ˆ":{"ha":847,"x_min":0,"x_max":0,"o":"m 193 800 l 319 800 l 424 903 l 528 800 l 654 800 l 485 968 l 363 968 z "},"ˇ":{"ha":847,"x_min":0,"x_max":0,"o":"m 363 800 l 485 800 l 654 968 l 528 968 l 424 865 l 319 968 l 193 968 z "},"˜":{"ha":808,"x_min":0,"x_max":0,"o":"m 194 861 l 263 856 b 322 904 271 890 294 904 b 486 850 375 904 413 850 b 614 986 567 850 604 903 l 546 992 b 482 935 536 951 517 935 b 319 989 431 935 390 989 b 194 861 249 989 203 933 z "},"¨":{"ha":842,"x_min":0,"x_max":0,"o":"m 564 814 b 633 883 600 814 633 843 b 564 953 633 924 600 953 b 494 883 528 953 494 924 b 564 814 494 843 528 814 z m 278 814 b 347 883 314 814 347 843 b 278 953 347 924 314 953 b 208 883 242 953 208 924 b 278 814 208 843 242 814 z "},"¯":{"ha":861,"x_min":0,"x_max":0,"o":"m 226 872 l 635 872 l 635 968 l 226 968 z "},"˘":{"ha":842,"x_min":0,"x_max":0,"o":"m 421 775 b 638 968 529 775 622 850 l 542 968 b 421 867 521 903 482 867 b 300 968 360 867 321 903 l 204 968 b 421 775 219 850 313 775 z "},"˚":{"ha":332,"x_min":0,"x_max":0,"o":"m 167 718 b 301 854 242 718 301 779 b 167 989 301 928 240 989 b 31 854 92 989 31 928 b 167 718 31 779 92 718 z m 167 789 b 101 854 132 789 101 819 b 167 918 101 889 132 918 b 231 854 201 918 231 889 b 167 789 231 819 201 789 z "},"˝":{"ha":813,"x_min":0,"x_max":0,"o":"m 438 767 l 514 767 l 657 968 l 525 968 z m 224 767 l 300 767 l 443 968 l 311 968 z "},"˙":{"ha":729,"x_min":0,"x_max":0,"o":"m 365 814 b 435 883 401 814 435 843 b 365 953 435 924 401 953 b 296 883 329 953 296 924 b 365 814 296 843 329 814 z "},"˛":{"ha":731,"x_min":0,"x_max":0,"o":"m 218 -151 b 358 -275 218 -229 288 -275 b 438 -256 386 -275 413 -268 l 456 -174 b 375 -194 431 -187 404 -194 b 306 -132 339 -194 306 -175 b 411 0 306 -76 369 -26 l 322 0 b 218 -151 271 -32 218 -83 z "},"¸":{"ha":735,"x_min":0,"x_max":0,"o":"m 306 -106 b 407 -162 369 -106 407 -115 b 346 -212 407 -193 381 -212 b 271 -189 314 -212 296 -204 l 244 -243 b 347 -275 264 -258 307 -275 b 490 -162 433 -275 490 -243 b 399 -64 490 -101 449 -64 l 428 0 l 350 0 z "},"?":{"ha":550,"x_min":0,"x_max":0,"o":"m 299 217 b 397 235 335 217 368 222 l 397 342 b 299 317 374 328 342 317 b 221 388 246 317 221 342 b 310 508 221 436 263 474 b 501 789 436 603 501 647 b 265 989 501 858 451 989 b 68 921 190 989 124 965 l 68 799 b 265 889 121 850 183 889 b 393 785 390 889 393 796 b 236 579 393 688 338 650 b 113 388 151 518 113 457 b 299 217 113 285 186 217 z m 197 49 b 267 -21 197 8 231 -21 b 336 49 303 -21 336 8 b 267 118 336 89 303 118 b 197 49 231 118 197 89 z "},"¿":{"ha":550,"x_min":0,"x_max":0,"o":"m 283 571 b 353 640 319 571 353 600 b 283 710 353 681 319 710 b 214 640 247 710 214 681 b 283 571 214 600 247 571 z m 49 -100 b 285 -300 49 -169 99 -300 b 482 -232 360 -300 426 -276 l 482 -110 b 285 -200 429 -161 367 -200 b 157 -96 160 -200 157 -107 b 314 110 157 1 213 39 b 438 301 399 171 438 232 b 251 472 438 404 364 472 b 153 454 215 472 182 467 l 153 347 b 251 372 176 361 208 372 b 329 301 304 372 329 347 b 240 181 329 253 288 215 b 49 -100 114 86 49 42 z "},"&":{"ha":1026,"x_min":0,"x_max":0,"o":"m 58 310 b 413 -21 58 114 200 -21 b 689 94 526 -21 615 13 l 774 0 l 913 0 l 746 185 b 800 493 782 264 800 369 l 800 546 l 988 546 l 988 646 l 649 646 b 694 767 678 675 694 719 b 457 986 694 889 599 986 b 211 749 308 986 211 885 b 251 601 211 694 228 644 b 58 310 126 542 58 442 z m 444 517 b 319 749 379 590 319 661 b 454 886 319 843 393 886 b 592 754 533 886 592 831 b 485 613 592 682 547 626 l 485 546 l 692 546 l 692 493 b 665 274 692 407 683 333 z m 167 310 b 310 515 167 404 214 472 b 617 174 372 436 322 499 b 413 79 567 103 496 79 b 167 310 261 79 167 168 z "},"!":{"ha":333,"x_min":0,"x_max":0,"o":"m 124 215 l 210 215 l 232 968 l 101 968 z m 97 49 b 167 -21 97 8 131 -21 b 236 49 203 -21 236 8 b 167 118 236 89 203 118 b 97 49 131 118 97 89 z "},"¡":{"ha":333,"x_min":0,"x_max":0,"o":"m 167 571 b 236 640 203 571 236 600 b 167 710 236 681 203 710 b 97 640 131 710 97 681 b 167 571 97 600 131 571 z m 101 -279 l 232 -279 l 210 474 l 124 474 z "},"@":{"ha":1115,"x_min":0,"x_max":0,"o":"m 53 406 b 557 -99 53 110 300 -99 b 793 -40 639 -99 721 -79 l 749 43 b 557 -11 690 8 624 -11 b 147 406 332 -11 147 176 b 557 824 147 636 332 824 b 968 429 783 824 968 647 b 851 224 968 229 888 224 b 786 311 832 224 786 224 l 786 629 l 692 629 l 692 581 b 553 642 654 624 613 642 b 314 399 419 642 314 538 b 553 156 314 260 419 156 b 706 229 613 156 667 182 b 851 136 729 169 781 136 b 1063 429 982 136 1063 239 b 557 911 1063 706 824 911 b 53 406 260 911 53 664 z m 407 399 b 553 551 407 488 468 551 b 699 399 635 551 699 488 b 553 247 699 313 635 247 b 407 399 468 247 407 313 z "},"ª":{"ha":621,"x_min":0,"x_max":0,"o":"m 65 590 b 247 438 65 497 140 438 b 413 497 314 438 376 456 b 432 460 415 486 419 474 b 478 443 440 450 458 443 b 529 457 499 443 513 446 l 529 514 l 500 514 b 478 547 489 514 478 524 l 478 821 b 299 981 478 917 408 981 b 96 876 214 981 143 944 l 156 826 b 299 900 190 869 238 900 b 400 821 331 900 400 890 b 275 751 400 765 365 754 b 65 590 138 747 65 683 z m 144 593 b 275 678 144 653 197 675 b 400 704 343 679 382 689 l 400 622 b 254 515 400 558 349 515 b 144 593 186 515 144 544 z "},"º":{"ha":633,"x_min":0,"x_max":0,"o":"m 317 442 b 588 711 465 442 588 560 b 317 981 588 863 465 981 b 46 711 168 981 46 863 b 317 442 46 560 168 442 z m 317 526 b 138 711 217 526 138 611 b 317 896 138 811 217 896 b 496 711 417 896 496 811 b 317 526 496 611 417 526 z "},"№":{"ha":1631,"x_min":0,"x_max":0,"o":"m 128 0 l 236 0 l 236 771 l 769 0 l 857 0 l 857 968 l 749 968 l 749 206 l 222 968 l 128 968 z m 1008 669 b 1283 396 1008 514 1132 396 b 1558 669 1435 396 1558 514 b 1283 943 1558 825 1435 943 b 1008 669 1132 943 1008 825 z m 1111 669 b 1283 847 1111 768 1186 847 b 1456 669 1381 847 1456 768 b 1283 492 1456 571 1381 492 b 1111 669 1186 492 1111 571 z m 1026 201 l 1547 201 l 1547 297 l 1026 297 z "},"™":{"ha":1169,"x_min":0,"x_max":0,"o":"m 526 453 l 631 453 l 631 736 l 807 542 l 983 736 l 983 453 l 1088 453 l 1088 969 l 1078 969 l 807 693 l 536 969 l 526 969 z m 194 453 l 299 453 l 299 868 l 463 868 l 463 968 l 31 968 l 31 868 l 194 868 z "},"©":{"ha":1128,"x_min":0,"x_max":0,"o":"m 58 483 b 564 -22 58 206 286 -22 b 1069 483 842 -22 1069 206 b 564 988 1069 761 842 988 b 58 483 286 988 58 761 z m 119 483 b 564 931 119 731 319 931 b 1008 483 808 931 1008 731 b 564 35 1008 236 808 35 b 119 483 319 35 119 236 z m 290 490 b 572 210 290 329 415 210 b 783 294 651 210 726 238 l 719 368 b 572 306 679 328 625 306 b 392 490 468 306 392 385 b 572 675 392 594 468 675 b 719 614 625 675 679 651 l 783 683 b 572 769 725 740 651 769 b 290 490 415 769 290 651 z "},"®":{"ha":547,"x_min":0,"x_max":0,"o":"m 272 547 b 499 768 397 547 499 639 b 272 989 499 897 397 989 b 49 768 149 989 49 897 b 272 547 49 639 149 547 z m 272 589 b 93 768 169 589 93 663 b 272 950 93 876 169 950 b 453 768 375 950 453 876 b 272 589 453 663 375 589 z m 190 646 l 238 646 l 238 739 l 271 739 l 326 646 l 382 646 l 321 747 b 363 821 347 763 363 789 b 281 900 363 867 329 900 l 190 900 z m 238 778 l 238 856 l 279 856 b 315 818 300 856 315 839 b 279 778 315 796 300 778 z "},"ℓ":{"ha":653,"x_min":0,"x_max":0,"o":"m 42 164 b 121 218 68 181 94 199 b 342 -21 121 83 201 -21 b 617 147 461 -21 553 33 l 557 206 b 371 74 524 149 461 74 b 224 263 286 74 225 122 l 224 276 b 522 775 415 444 522 600 b 338 989 522 904 451 989 b 118 683 214 989 118 901 l 118 315 b 6 233 82 288 43 260 z m 221 392 l 221 707 b 331 893 221 839 274 893 b 421 772 382 893 421 860 b 221 392 421 643 344 515 z "},"℮":{"ha":1263,"x_min":0,"x_max":0,"o":"m 278 142 l 278 499 l 1201 499 l 1201 514 b 631 1044 1201 807 944 1044 b 61 514 317 1044 61 807 b 631 -17 61 221 317 -17 b 1076 189 813 -17 975 65 l 1035 189 b 632 13 940 82 794 13 b 278 142 494 13 371 63 z m 278 528 l 278 885 b 632 1014 371 964 494 1014 b 983 888 768 1014 890 965 l 983 528 z "},"$":{"ha":756,"x_min":0,"x_max":0,"o":"m 63 215 b 342 -12 115 78 218 4 l 342 -149 l 431 -149 l 431 -15 b 701 250 607 -4 701 107 b 431 557 701 414 607 478 l 431 882 b 544 790 482 869 518 840 l 636 838 b 431 985 592 921 522 971 l 431 1121 l 342 1121 l 342 988 b 114 754 208 975 114 881 b 342 483 114 606 208 544 l 342 89 b 164 263 254 110 196 175 z m 342 597 b 222 754 268 635 222 674 b 342 888 222 832 272 878 z m 431 85 l 431 443 b 593 250 533 394 593 351 b 431 85 593 203 576 97 z "},"¢":{"ha":740,"x_min":0,"x_max":0,"o":"m 261 0 l 356 0 l 381 119 b 424 117 390 118 406 117 b 693 215 492 117 607 133 l 629 289 b 432 211 561 222 478 211 b 400 214 414 211 403 214 l 511 751 b 631 686 558 740 599 718 l 693 758 b 531 846 649 801 593 831 l 557 968 l 463 968 l 440 858 l 426 858 b 53 488 281 858 53 757 b 292 142 53 322 151 192 z m 311 236 b 156 488 217 278 156 372 b 419 763 156 643 267 760 b 421 763 419 763 421 763 z "},"€":{"ha":1035,"x_min":0,"x_max":0,"o":"m 11 333 l 182 333 b 625 -19 239 122 417 -19 b 976 132 765 -19 889 36 l 899 201 b 625 81 833 125 738 81 b 293 333 467 81 342 182 l 544 333 l 586 429 l 274 429 b 271 483 272 447 271 465 b 275 549 271 506 272 528 l 633 549 l 675 644 l 297 644 b 625 886 349 789 471 886 b 888 771 732 886 824 843 l 964 839 b 625 986 879 931 760 986 b 185 644 419 986 246 849 l 82 644 l 40 549 l 167 549 b 163 483 164 528 163 506 b 165 429 163 465 164 447 l 53 429 z "},"£":{"ha":814,"x_min":0,"x_max":0,"o":"m 56 0 l 753 0 l 753 100 l 331 100 b 413 301 372 129 413 197 b 386 413 413 339 401 376 l 546 413 l 546 513 l 333 513 b 256 704 294 575 256 650 b 433 889 256 806 335 889 b 610 704 532 889 610 803 l 717 704 b 432 989 717 861 589 989 b 147 704 275 989 147 861 b 214 513 147 639 178 575 l 126 513 l 126 413 l 269 413 b 304 301 289 374 304 333 b 68 93 304 211 260 93 l 56 93 z "},"¥":{"ha":853,"x_min":0,"x_max":0,"o":"m 374 0 l 482 0 l 482 293 l 776 293 l 776 393 l 479 393 l 551 515 l 776 515 l 776 615 l 611 615 l 819 968 l 703 968 l 429 504 l 153 968 l 33 968 l 244 615 l 79 615 l 79 515 l 303 515 l 376 393 l 79 393 l 79 293 l 374 293 z "},"ƒ":{"ha":521,"x_min":0,"x_max":0,"o":"m 33 -140 l 136 -140 l 276 519 l 415 519 l 433 607 l 294 607 l 329 768 b 458 893 347 851 382 893 b 529 889 472 893 497 893 l 549 983 b 485 989 526 988 507 989 b 224 756 386 989 269 967 l 192 607 l 86 607 l 68 519 l 174 519 z "},"§":{"ha":718,"x_min":0,"x_max":0,"o":"m 114 -32 b 357 -289 114 -179 201 -289 b 599 -65 492 -289 599 -199 b 539 90 599 -3 579 49 b 663 289 603 122 663 185 b 572 479 663 363 633 425 b 349 613 518 525 422 575 b 215 765 265 656 215 683 b 349 889 215 850 282 889 b 483 732 465 889 483 790 l 592 732 b 349 989 592 874 510 989 b 107 765 211 989 107 896 b 167 610 107 703 126 651 b 43 411 108 581 43 521 b 133 221 43 338 72 275 b 332 101 176 183 261 138 b 490 -65 424 54 490 19 b 357 -189 490 -150 424 -189 b 222 -32 240 -189 222 -90 z m 365 199 b 151 411 229 272 151 318 b 272 538 151 436 151 510 b 340 501 308 517 340 501 b 554 289 476 428 554 382 b 433 163 554 264 554 190 b 365 199 397 183 365 199 z "},"¶":{"ha":749,"x_min":0,"x_max":0,"o":"m 322 0 l 431 0 l 431 868 l 533 868 l 533 0 l 642 0 l 642 868 l 733 868 l 733 968 l 338 968 b 39 669 172 968 39 835 b 322 371 39 510 164 379 z "},"∆":{"ha":867,"x_min":0,"x_max":0,"o":"m 60 0 l 807 0 l 807 65 l 471 968 l 394 968 l 60 65 z m 181 100 l 433 783 l 686 100 z "},"Ω":{"ha":1083,"x_min":0,"x_max":0,"o":"m 85 0 l 476 0 b 172 476 357 76 172 222 b 542 886 172 710 329 886 b 911 476 754 886 911 710 b 607 0 911 222 726 76 l 999 0 l 999 100 l 842 100 b 1018 497 950 190 1018 332 b 542 986 1018 779 803 986 b 65 497 281 986 65 779 b 242 100 65 332 133 190 l 85 100 z "},"μ":{"ha":729,"x_min":0,"x_max":0,"o":"m 174 51 b 360 -17 221 10 293 -17 b 658 281 531 -17 658 85 l 658 700 l 556 700 l 556 282 b 364 79 556 147 481 79 b 174 281 249 79 174 147 l 174 700 l 71 700 l 71 -268 l 174 -268 z "},"π":{"ha":813,"x_min":0,"x_max":0,"o":"m 131 0 l 242 0 b 343 604 307 154 342 394 l 563 604 l 563 167 b 726 -3 563 65 628 -3 b 728 -3 726 -3 728 -3 l 728 100 b 665 167 701 100 665 107 l 665 604 l 767 604 l 789 699 l 235 699 b 18 578 151 699 60 656 l 101 529 b 236 604 129 579 183 604 l 240 604 b 131 0 239 365 206 164 z "},"∞":{"ha":1097,"x_min":0,"x_max":0,"o":"m 289 242 b 556 383 401 242 485 310 b 794 242 625 311 693 242 b 1031 454 931 242 1031 342 b 808 672 1031 583 938 672 b 544 526 697 672 614 601 b 301 672 479 596 407 672 b 67 454 165 672 67 571 b 289 242 67 332 158 242 z m 618 451 b 800 576 671 510 731 576 b 922 454 872 576 922 526 b 797 339 922 392 869 339 b 618 451 731 339 671 396 z m 299 339 b 175 454 225 339 175 388 b 301 576 175 522 228 576 b 488 458 365 576 431 519 b 299 339 433 404 367 339 z "},"∂":{"ha":704,"x_min":0,"x_max":0,"o":"m 50 289 b 314 -21 50 128 140 -21 b 535 96 401 -21 482 28 b 639 528 626 213 639 385 b 581 819 639 607 628 722 b 319 989 526 931 436 989 b 111 896 197 989 138 924 l 185 831 b 319 892 206 857 239 892 b 540 514 504 892 540 654 b 540 513 540 514 540 513 b 347 614 499 582 418 614 b 50 289 172 614 50 454 z m 153 271 b 347 519 153 431 254 519 b 514 333 447 519 514 439 b 489 208 514 292 506 246 b 314 78 456 133 390 78 b 153 271 204 78 153 175 z "},"∏":{"ha":910,"x_min":0,"x_max":0,"o":"m 186 0 l 289 0 l 289 872 l 621 872 l 621 0 l 724 0 l 724 872 l 867 872 l 867 968 l 43 968 l 43 872 l 186 872 z "},"◊":{"ha":742,"x_min":0,"x_max":0,"o":"m 350 0 l 392 0 l 693 485 l 392 968 l 350 968 l 49 485 z m 371 146 l 164 485 l 371 821 l 578 485 z "},"∑":{"ha":794,"x_min":0,"x_max":0,"o":"m 88 0 l 722 0 l 722 100 l 228 100 l 521 501 l 238 868 l 707 868 l 707 968 l 110 968 l 110 894 l 404 514 l 88 74 z "},"√":{"ha":989,"x_min":0,"x_max":0,"o":"m 79 428 l 206 481 l 463 -121 l 543 -121 l 940 1111 l 840 1111 l 497 33 l 260 589 l 49 500 z "},"∫":{"ha":439,"x_min":0,"x_max":0,"o":"m 28 -42 l 28 -129 b 97 -142 47 -136 74 -142 b 288 171 215 -142 288 -67 b 268 760 288 308 268 593 b 368 1010 268 886 279 1010 b 411 1003 388 1010 401 1007 l 411 1090 b 360 1096 399 1093 379 1096 b 164 768 247 1096 164 1014 b 182 189 164 576 182 326 b 86 -51 182 43 174 -51 b 28 -42 61 -51 43 -47 z "},"←":{"ha":871,"x_min":0,"x_max":0,"o":"m 351 40 l 421 110 l 218 311 l 833 311 l 833 411 l 219 411 l 421 613 l 351 682 l 29 361 z "},"↑":{"ha":899,"x_min":0,"x_max":0,"o":"m 396 0 l 501 0 l 501 589 l 682 407 l 751 476 l 449 781 l 146 476 l 215 407 l 396 589 z "},"→":{"ha":871,"x_min":0,"x_max":0,"o":"m 36 311 l 651 311 l 449 110 l 518 40 l 840 361 l 518 682 l 449 613 l 650 411 l 36 411 z "},"↓":{"ha":899,"x_min":0,"x_max":0,"o":"m 146 246 l 449 -58 l 751 246 l 682 315 l 501 133 l 501 700 l 396 700 l 396 133 l 215 315 z "},"↔":{"ha":1243,"x_min":0,"x_max":0,"o":"m 351 40 l 421 110 l 218 311 l 1024 311 l 821 110 l 890 40 l 1213 361 l 890 682 l 821 613 l 1022 411 l 219 411 l 421 613 l 351 682 l 29 361 z "},"↕":{"ha":899,"x_min":0,"x_max":0,"o":"m 175 172 l 449 -103 l 722 172 l 653 242 l 501 89 l 501 669 l 653 517 l 722 586 l 449 861 l 175 586 l 244 517 l 396 669 l 396 89 l 244 242 z "},"↖":{"ha":899,"x_min":0,"x_max":0,"o":"m 165 190 l 271 190 l 271 469 l 694 46 l 765 117 l 338 543 l 621 543 l 621 646 l 165 646 z "},"↗":{"ha":899,"x_min":0,"x_max":0,"o":"m 133 117 l 204 46 l 628 469 l 628 190 l 733 190 l 733 646 l 278 646 l 278 543 l 561 543 z "},"↘":{"ha":899,"x_min":0,"x_max":0,"o":"m 278 67 l 733 67 l 733 522 l 628 522 l 628 243 l 204 667 l 133 596 l 561 169 l 278 169 z "},"↙":{"ha":899,"x_min":0,"x_max":0,"o":"m 165 67 l 621 67 l 621 169 l 338 169 l 765 596 l 694 667 l 271 243 l 271 522 l 165 522 z "},"▲":{"ha":749,"x_min":0,"x_max":0,"o":"m 118 183 l 631 183 l 367 621 z "},"►":{"ha":749,"x_min":0,"x_max":0,"o":"m 189 103 l 626 367 l 189 615 z "},"▼":{"ha":749,"x_min":0,"x_max":0,"o":"m 367 100 l 631 538 l 118 538 z "},"◄":{"ha":749,"x_min":0,"x_max":0,"o":"m 122 367 l 560 103 l 560 615 z "},"◢":{"ha":749,"x_min":0,"x_max":0,"o":"m 106 261 l 601 139 l 468 624 z "},"◣":{"ha":749,"x_min":0,"x_max":0,"o":"m 147 139 l 643 261 l 281 624 z "},"◤":{"ha":749,"x_min":0,"x_max":0,"o":"m 281 96 l 643 458 l 147 581 z "},"◥":{"ha":749,"x_min":0,"x_max":0,"o":"m 117 447 l 479 85 l 601 581 z "}}}
